<svg width="99" height="47" viewBox="0 0 99 47" fill="none" xmlns="http://www.w3.org/2000/svg">
<path d="M36.4407 18.8431C30.4289 14.6168 26.6735 13.4212 17.7946 13.8434C-3.74629 14.8701 -9.3176 46.7999 21.4497 46.7999C26.7913 46.7999 32.5865 44.635 36.7795 38.7246C36.7795 38.7246 30.599 44.9908 21.6866 44.9908C12.7743 44.9908 6.38879 40.0204 6.38879 29.7081C6.38879 19.3958 13.9345 14.8217 18.0664 14.5042C22.1984 14.1868 25.647 14.5572 27.902 15.6413C28.4254 15.8338 29.4969 16.3382 29.6089 17.2546C29.7237 18.1935 30.173 19.4769 30.9407 19.7932C32.5458 20.4541 35.4506 20.5644 36.4407 18.8431Z" fill="#FFC656"/>
<path d="M11.9265 0.799805H41.2021V9.04963H40.8546C40.8546 9.04963 42.0206 1.258 31.003 1.258C23.8092 1.258 24.1276 1.258 24.1276 1.258V13.7386C24.1276 13.7386 24.1276 23.2043 24.1276 28.0339C24.1276 32.8636 30.4564 32.1408 30.4564 32.1408V32.8636H11.6982V32.1757C11.6982 32.1757 18.1172 32.8636 18.1172 28.1566V5.27709C18.1172 5.27709 18.4821 1.34581 11.9018 1.34581L11.9265 0.799805Z" fill="#FFC656"/>
<path d="M42.1699 17.6317C42.1699 16.7797 42.65 15.7884 43.6903 15.2462C44.6505 14.7506 45.1706 14.4872 45.4106 14.1464V18.7005C44.0704 19.8932 42.1699 19.7693 42.1699 17.6317ZM39.6094 17.9105C39.6094 19.2582 40.8096 20.2805 42.37 20.2805C43.6903 20.2805 44.9105 19.4285 45.4106 18.8864V20.1411L48.6514 19.537C48.5113 19.3821 47.8912 19.3046 47.8912 18.716V14.9829C47.8912 13.1706 46.2308 12.0398 43.8703 12.0398C42.57 12.0398 41.3698 12.4425 40.2895 13.5113L41.6298 13.9451C41.8499 13.2325 42.59 12.1792 43.8703 12.1792C45.1106 12.1792 45.4106 13.0002 45.4106 13.5733V13.6353C45.4106 14.3013 44.6305 14.5492 43.3102 14.9829C41.8099 15.4786 39.6094 16.1447 39.6094 17.9105Z" fill="#FFC656"/>
<path d="M51.3995 13.4494C51.3995 12.489 52.3597 12.1792 53.2999 12.1792C55.2003 12.1792 56.1405 13.31 56.5206 14.1619L56.3406 12.458L55.9605 12.5974C55.3803 12.3186 54.3801 12.0398 53.2999 12.0398C51.5795 12.0398 49.499 12.6749 49.499 14.3013C49.499 17.0895 55.8604 17.0121 55.8604 18.7315C55.8604 19.568 54.8202 20.1101 53.4799 20.1101C51.0594 20.1101 49.6791 18.4217 49.299 17.7092L49.499 19.7074L50.0592 19.5525C50.9394 20.0172 52.2196 20.2805 53.4799 20.2805C55.8004 20.2805 57.4808 19.3201 57.4808 17.7092C57.4808 15.2927 51.3995 15.4631 51.3995 13.4494Z" fill="#FFC656"/>
<path d="M68.3676 19.2117V14.5337C68.3676 13.0466 66.8872 12.0398 65.1469 12.0398C63.9866 12.0398 62.7263 12.427 61.7261 13.3874V7.19141L58.4854 7.78003C58.6254 7.95042 59.2456 8.01238 59.2456 8.601V19.2117C59.2456 19.8003 58.6254 19.8623 58.4854 20.0327H62.4863C62.3462 19.8623 61.7261 19.8003 61.7261 19.2117V13.6198C62.3662 13.0466 63.1064 12.7988 63.7866 12.7833C64.9268 12.7833 65.887 13.4494 65.887 14.5337V19.2117C65.887 19.8003 65.2669 19.8623 65.1269 20.0327H69.1277C68.9877 19.8623 68.3676 19.8003 68.3676 19.2117Z" fill="#FFC656"/>
<path d="M73.4084 19.2117V12.2876L70.1677 12.8763C70.3077 13.0466 70.9278 13.1086 70.9278 13.6972V19.2117C70.9278 19.8003 70.3077 19.8623 70.1677 20.0327H74.1685C74.0285 19.8623 73.4084 19.8003 73.4084 19.2117ZM70.6478 10.4133C70.6478 11.0639 71.3279 11.5906 72.1681 11.5906C73.0083 11.5906 73.6884 11.0639 73.6884 10.4133C73.6884 9.77824 73.0083 9.23609 72.1681 9.23609C71.3279 9.23609 70.6478 9.77824 70.6478 10.4133Z" fill="#FFC656"/>
<path d="M80.4452 20.1411C78.3448 20.1411 77.6846 18.2668 77.6846 16.1601C77.6846 14.069 78.3448 12.1792 80.4452 12.1792C82.5257 12.1792 83.2058 14.069 83.2058 16.1601C83.2058 18.2668 82.5257 20.1411 80.4452 20.1411ZM75.1241 16.1601C75.1241 18.4372 77.5046 20.2805 80.4452 20.2805C83.3859 20.2805 85.7664 18.4372 85.7664 16.1601C85.7664 13.8986 83.3859 12.0398 80.4452 12.0398C77.5046 12.0398 75.1241 13.8986 75.1241 16.1601Z" fill="#FFC656"/>
<path d="M96.4206 19.2117V14.5337C96.4206 13.0466 94.9403 12.0398 93.1999 12.0398C92.0396 12.0398 90.7794 12.427 89.7791 13.3874V12.2876L86.5384 12.8763C86.6785 13.0466 87.2986 13.1086 87.2986 13.6972V19.2117C87.2986 19.8003 86.6785 19.8623 86.5384 20.0327H90.5393C90.3993 19.8623 89.7791 19.8003 89.7791 19.2117V13.6198C90.4193 13.0466 91.1595 12.7988 91.8396 12.7833C92.9799 12.7833 93.9401 13.4494 93.9401 14.5337V19.2117C93.9401 19.8003 93.3199 19.8623 93.1799 20.0327H97.1808C97.0407 19.8623 96.4206 19.8003 96.4206 19.2117Z" fill="#FFC656"/>
<path d="M47.4752 37.4077V36.1375C46.815 36.5557 46.0549 37.0669 45.2147 37.7484L44.9946 37.9343V38.8327L48.2353 38.2286C48.0953 38.0737 47.4752 37.9963 47.4752 37.4077ZM39.1934 36.6022C39.1934 37.9343 40.3736 38.9722 41.954 38.9722C43.2743 38.9722 44.4545 38.1202 44.9946 37.5935C46.515 36.3698 47.7152 35.6883 48.6954 35.1306C49.7957 34.511 51.5561 33.2253 52.5163 32.3114C53.2364 31.6608 54.0566 31.475 54.5967 31.475C55.897 31.475 56.2971 32.3734 56.2971 33.1789V37.9033C56.2971 38.492 55.677 38.5539 55.537 38.7243H59.5378C59.3978 38.5539 58.7777 38.492 58.7777 37.9033V33.2253C58.7777 32.9001 58.7177 32.5438 58.5976 32.2495C59.2778 31.6763 60.118 31.475 60.8381 31.475C62.2184 31.475 62.5585 32.4508 62.5585 33.1634V37.9033C62.5585 38.492 61.9384 38.5539 61.7983 38.7243H65.7992C65.6592 38.5539 65.039 38.492 65.039 37.9033V33.2873C65.039 31.7073 63.9188 30.7314 62.2184 30.7314C60.9982 30.7314 59.6979 31.0412 58.5176 32.0791C58.0975 31.2426 57.1573 30.7314 55.957 30.7314C54.8368 30.7314 53.5365 31.0877 52.5163 32.0791V30.9793L49.2756 31.5679C49.4156 31.7383 50.0357 31.8003 50.0357 32.3889V34.0773C49.5356 34.4491 48.9755 34.7743 48.5554 35.0222C48.1953 35.2236 47.8553 35.4249 47.4752 35.6573V33.6281C47.4752 32.0946 46.0949 30.7314 43.4543 30.7314C41.954 30.7314 40.8537 31.2581 39.8735 32.203L41.2138 32.6367C41.4339 31.9242 42.174 30.8709 43.4543 30.8709C44.8346 30.8709 44.9946 31.8777 44.9946 32.203V32.3269C44.9946 33.0085 44.1945 33.2408 42.8942 33.6746C41.3738 34.1857 39.1934 34.8363 39.1934 36.6022ZM41.7539 36.3079C41.7539 35.4559 42.234 34.48 43.2743 33.9379C44.2345 33.4422 44.7346 33.1944 44.9946 32.8381V37.3922C43.6343 38.6004 41.7539 38.4455 41.7539 36.3079ZM49.2756 38.7243H53.2765C53.1364 38.5539 52.5163 38.492 52.5163 37.9033V32.6677C51.8361 33.2873 50.8959 34.0463 50.0357 34.6504V37.9033C50.0357 38.492 49.4156 38.5539 49.2756 38.7243Z" fill="#FFC656"/>
<path d="M72.182 38.8327C71.1818 38.8327 70.5216 38.4145 70.0816 37.7484V32.4973C71.1018 31.4595 72.262 31.1961 73.2022 31.5989C74.4825 32.1101 74.9426 33.1479 74.9426 34.8518C74.9426 36.9584 74.2625 38.8327 72.182 38.8327ZM66.8408 42.6588H70.8417C70.7017 42.4884 70.0816 42.4264 70.0816 41.8378V38.6469C70.7217 38.8637 71.4419 38.9722 72.182 38.9722C75.1227 38.9722 77.5032 37.1288 77.5032 34.8518C77.5032 32.5903 75.4827 30.7314 73.2022 30.7314C71.962 30.7314 71.0218 31.2891 70.0816 32.2959V30.9793L66.8408 31.5679C66.9809 31.7383 67.601 31.8003 67.601 32.3889V41.8378C67.601 42.4264 66.9809 42.4884 66.8408 42.6588Z" fill="#FFC656"/>
<path d="M85.7261 37.6245V38.8327L88.9668 38.2441C88.8468 38.0737 88.2066 38.0118 88.2066 37.4231V30.9793L84.9659 31.413C85.106 31.5834 85.7261 31.6608 85.7261 32.2495V37.3922C84.0057 38.9257 81.5452 38.1977 81.5452 36.7726V30.9793L78.3045 31.413C78.4445 31.5834 79.0646 31.6608 79.0646 32.2495V36.4783C79.0646 37.9808 80.585 38.9722 82.3653 38.9722C83.5056 38.9722 84.7459 38.5694 85.7261 37.6245Z" fill="#FFC656"/>
<path d="M92.0667 32.141C92.0667 31.1807 93.0269 30.8709 93.9671 30.8709C95.8675 30.8709 96.8077 32.0016 97.1878 32.8536L97.0078 31.1497L96.6277 31.2891C96.0476 31.0103 95.0474 30.7314 93.9671 30.7314C92.2467 30.7314 90.1663 31.3665 90.1663 32.993C90.1663 35.7812 96.5277 35.7038 96.5277 37.4231C96.5277 38.2596 95.4875 38.8018 94.1472 38.8018C91.7266 38.8018 90.3463 37.1133 89.9662 36.4008L90.1663 38.399L90.7264 38.2441C91.6066 38.7088 92.8869 38.9722 94.1472 38.9722C96.4677 38.9722 98.148 38.0118 98.148 36.4008C98.148 33.9844 92.0667 34.1547 92.0667 32.141Z" fill="#FFC656"/>
</svg>
