<svg width="29" height="29" viewBox="0 0 29 29" fill="none" xmlns="http://www.w3.org/2000/svg">
<path d="M10.0638 22.9661H9.48047C4.8138 22.9661 2.48047 21.7995 2.48047 15.9661V10.1328C2.48047 5.46615 4.8138 3.13281 9.48047 3.13281H18.8138C23.4805 3.13281 25.8138 5.46615 25.8138 10.1328V15.9661C25.8138 20.6328 23.4805 22.9661 18.8138 22.9661H18.2305C17.8688 22.9661 17.5188 23.1411 17.2971 23.4328L15.5471 25.7661C14.7771 26.7928 13.5171 26.7928 12.7471 25.7661L10.9971 23.4328C10.8105 23.1761 10.3788 22.9661 10.0638 22.9661Z" stroke="#FFA800" stroke-width="1.5" stroke-miterlimit="10" stroke-linecap="round" stroke-linejoin="round"/>
<path d="M18.8103 13.6331H18.8208" stroke="#FFC656" stroke-width="2" stroke-linecap="round" stroke-linejoin="round"/>
<path d="M14.1424 13.6331H14.1528" stroke="#FFC656" stroke-width="2" stroke-linecap="round" stroke-linejoin="round"/>
<path d="M9.47439 13.6331H9.48487" stroke="#FFC656" stroke-width="2" stroke-linecap="round" stroke-linejoin="round"/>
</svg>
