<svg width="29" height="29" viewBox="0 0 29 29" fill="none" xmlns="http://www.w3.org/2000/svg">
<path d="M23.4805 13.6328C23.4805 19.4311 18.7788 24.1328 12.9805 24.1328C7.18214 24.1328 2.48047 19.4311 2.48047 13.6328C2.48047 7.83448 7.18214 3.13281 12.9805 3.13281" stroke="#FFA800" stroke-width="1.5" stroke-linecap="round" stroke-linejoin="round"/>
<path opacity="0.7" d="M15.897 7.95173C15.4887 6.6684 15.967 5.07006 17.3204 4.6384C18.032 4.40506 18.907 4.6034 19.4087 5.29173C19.8754 4.58006 20.7854 4.41673 21.4854 4.6384C22.8387 5.07006 23.317 6.6684 22.9087 7.95173C22.267 9.9934 20.027 11.0551 19.4087 11.0551C18.7787 11.0551 16.562 10.0167 15.897 7.95173Z" stroke="#FFC656" stroke-width="1.5" stroke-linecap="round" stroke-linejoin="round"/>
<path opacity="0.7" d="M22.2323 24.9381C22.8506 26.8047 24.2623 26.9914 25.3473 25.3581C26.339 23.8647 25.6856 22.6397 23.889 22.6397C22.559 22.6281 21.8123 23.6664 22.2323 24.9381Z" stroke="#FFC656" stroke-width="1.5" stroke-linecap="round" stroke-linejoin="round"/>
</svg>
