<svg width="1440" height="560" viewBox="0 0 1440 560" fill="none" xmlns="http://www.w3.org/2000/svg">
<g opacity="0.5" clip-path="url(#clip0_718_24660)">
<path opacity="0.91" d="M725.31 -75.8443C740.628 -76.5565 756.018 -77.0978 771.48 -77.4539C786.942 -77.7673 802.458 -77.8812 818.064 -77.7958C833.67 -77.6391 849.348 -77.2616 865.062 -76.6634C880.812 -75.9797 896.58 -75.0752 912.402 -73.9428C928.188 -72.7249 943.992 -71.2862 959.76 -69.6268C975.492 -67.889 991.152 -65.9447 1006.69 -63.801C1022.09 -61.5932 1037.34 -59.2002 1052.32 -56.6362C1067.09 -54.0296 1081.51 -51.2662 1095.53 -48.3604C1109.23 -45.4404 1122.41 -42.3922 1135.01 -39.2371C1147.18 -36.0892 1158.66 -32.8487 1169.41 -29.5227C1179.68 -26.2323 1189.19 -22.8707 1197.9 -19.4521C1206.16 -16.0834 1213.7 -12.6648 1220.53 -9.21064C1230.16 -4.09702 1247.44 6.21567 1255.95 11.4005C1262.21 14.7977 1268.87 18.2377 1276.11 21.7132C1284.39 25.1247 1293.53 28.5788 1303.7 32.0829C1315.15 35.5371 1327.73 39.0411 1341.4 42.6092C1356.25 46.1346 1371.98 49.7241 1388.43 53.392C1405.44 57.0242 1422.59 60.7419 1439.59 64.538C1456.15 68.3198 1471.77 72.187 1486.08 76.154C1498.91 80.1138 1509.8 84.1663 1518.48 88.3184C1525.07 92.4705 1529.23 96.7295 1531.01 101.088C1530.97 105.454 1528.99 109.92 1525.46 114.485C1521.31 119.064 1516.63 123.743 1512 128.515C1508.47 133.301 1506.15 138.187 1505.54 143.158C1507.43 148.143 1511.68 153.221 1518.43 158.371C1527.86 163.541 1539.47 168.79 1552.82 174.11C1567.57 179.438 1582.79 184.843 1597.72 190.306C1611.79 195.776 1623.98 201.309 1633.57 206.9C1640.34 212.498 1643.6 218.139 1643.15 223.836C1639.49 229.534 1632.53 235.274 1622.79 241.057C1611.45 246.841 1598.94 252.659 1586.2 258.521C1574.6 264.375 1564.7 270.201 1557.2 275.984C1552.82 281.774 1551.49 287.522 1553.15 293.24C1557.9 298.952 1564.87 304.636 1573.4 310.284C1583.14 315.938 1592.84 321.558 1601.66 327.156C1609.27 332.761 1614.58 338.337 1617.08 343.892C1616.85 349.476 1613.34 355.031 1606.61 360.579C1597.21 366.156 1585.22 371.725 1571.15 377.288C1555.83 382.893 1539.65 388.498 1523.3 394.117C1507.54 399.772 1492.72 405.448 1479.31 411.146C1467.83 416.886 1458.29 422.655 1450.75 428.438C1445.44 434.285 1441.91 440.154 1439.91 446.044C1439.46 451.983 1439.82 457.945 1440.56 463.913C1441.67 469.924 1442.36 475.942 1442.21 481.953C1441.35 487.985 1439.06 493.996 1435.19 499.957C1429.94 505.918 1422.9 511.816 1414.12 517.627C1403.87 523.382 1392.03 529.029 1378.78 534.535C1364.47 539.948 1349.12 545.175 1333.01 550.21C1316.39 555.096 1299.4 559.74 1282.28 564.12C1265.22 568.307 1248.34 572.203 1231.78 575.771C1215.65 579.112 1200.02 582.117 1184.92 584.759C1170.43 587.167 1156.5 589.204 1143.09 590.87C1130.31 592.316 1117.96 593.405 1105.97 594.153C1094.49 594.716 1083.26 594.965 1072.17 594.937C1061.42 594.801 1050.7 594.438 1039.91 593.883C1029.33 593.334 1018.58 592.665 1007.62 591.917C996.732 591.29 985.572 590.671 974.088 590.101C962.604 589.766 950.778 589.567 938.61 589.517C926.388 589.809 913.806 590.315 900.882 591.055C887.904 592.188 874.566 593.584 860.904 595.236C847.206 597.28 833.184 599.566 818.856 602.066C804.51 604.893 789.876 607.877 774.972 610.976C760.05 614.266 744.894 617.578 729.486 620.84C714.078 624.13 698.616 627.221 683.136 630.055C667.674 632.748 652.194 635.069 636.714 636.985C621.234 638.616 605.772 639.77 590.346 640.425C574.92 640.71 559.548 640.454 544.212 639.67C528.93 638.495 513.702 636.793 498.564 634.592C483.48 632.035 468.504 629.023 453.654 625.583C438.876 621.879 424.26 617.827 409.842 613.468C395.532 608.953 381.42 604.21 367.56 599.303C353.844 594.338 340.398 589.289 327.24 584.182C314.244 579.14 301.572 574.112 289.224 569.126C277.038 564.291 265.176 559.547 253.656 554.911C242.28 550.481 231.21 546.186 220.464 542.027C209.772 538.096 199.35 534.314 189.18 530.66C178.992 527.228 169.002 523.923 159.174 520.725C149.238 517.727 139.428 514.807 129.708 511.944C119.826 509.244 110.034 506.574 100.296 503.917C90.3965 501.368 80.5684 498.796 70.8484 496.176C61.0025 493.626 51.3184 491.005 41.8144 488.284C32.2744 485.599 23.0044 482.8 14.0044 479.866C5.07645 476.932 -3.49155 473.855 -11.7176 470.629C-19.8356 467.374 -27.5756 463.955 -34.9196 460.373C-42.1916 456.755 -49.1216 452.966 -55.7276 449.006C-62.3336 445.011 -68.6516 440.845 -74.7356 436.521C-80.8736 432.149 -86.7956 427.619 -92.5016 422.947C-98.2796 418.232 -103.824 413.375 -109.116 408.389C-114.408 403.361 -119.376 398.212 -123.966 392.949C-128.466 387.657 -132.516 382.259 -136.098 376.761C-139.536 371.248 -142.47 365.636 -144.936 359.945C-147.312 354.241 -149.256 348.458 -150.822 342.603C-152.442 336.742 -153.792 330.816 -154.908 324.834C-156.186 318.844 -157.302 312.805 -158.256 306.708C-159.408 300.612 -160.362 294.473 -161.046 288.284C-161.802 282.102 -162.198 275.941 -162.144 269.816C-161.982 263.691 -161.298 257.602 -160.056 251.541C-158.616 245.48 -156.618 239.455 -154.08 233.465C-151.416 227.476 -148.284 221.515 -144.756 215.589C-141.21 209.656 -137.376 203.759 -133.29 197.891C-129.294 192.022 -125.118 186.182 -120.726 180.371C-116.46 174.552 -111.978 168.769 -107.244 163.014C-102.582 157.253 -97.5956 151.519 -92.2856 145.829C-86.9396 140.124 -81.2156 134.448 -75.0956 128.814C-68.9036 123.174 -62.3156 117.576 -55.3856 112.021C-48.3836 106.465 -41.0756 100.953 -33.4796 95.4974C-25.9376 90.0419 -18.1616 84.6506 -10.1876 79.3233C-2.32156 74.0103 5.68844 68.7684 13.8604 63.6121C21.9244 58.4771 30.1504 53.4276 38.5564 48.4849C46.8904 43.5778 55.4584 38.7776 64.2784 34.0913C73.1344 29.462 82.2964 24.9537 91.8004 20.5808C101.448 16.272 111.456 12.1056 121.86 8.09589C132.462 4.15028 143.442 0.368485 154.818 -3.24951C166.374 -6.79627 178.29 -10.1721 190.548 -13.3699C202.932 -16.5036 215.604 -19.4664 228.528 -22.2511C241.524 -24.9788 254.7 -27.5356 268.038 -29.9286C281.34 -32.2718 294.786 -34.4582 308.304 -36.4951C321.75 -38.5035 335.25 -40.3695 348.822 -42.1073C362.25 -43.8451 375.732 -45.4618 389.25 -46.9716C402.624 -48.5029 416.07 -49.9415 429.552 -51.2947C442.908 -52.6977 456.354 -54.0224 469.854 -55.283C483.264 -56.6149 496.782 -57.8897 510.408 -59.1076C523.944 -60.4109 537.624 -61.6573 551.448 -62.8609C565.218 -64.1428 579.15 -65.375 593.262 -66.5501C607.338 -67.7964 621.594 -68.9787 636.066 -70.0826C650.502 -71.2435 665.154 -72.3118 680.022 -73.2733C694.872 -74.2632 709.956 -75.125 725.292 -75.8443" stroke="url(#paint0_linear_718_24660)" stroke-width="2.5" stroke-linecap="round" stroke-dasharray="19 2"/>
<path opacity="0.36" d="M786.211 -62.4434C801.27 -62.8274 816.321 -63.0402 831.365 -63.075C846.42 -63.0737 861.448 -62.8805 876.427 -62.4887C891.415 -62.0324 906.354 -61.3633 921.243 -60.4813C936.083 -59.5148 950.855 -58.3358 965.506 -56.9457C980.107 -55.4639 994.55 -53.7648 1008.82 -51.8698C1022.97 -49.885 1036.89 -47.7057 1050.51 -45.3407C1063.98 -42.908 1077.09 -40.2979 1089.79 -37.5336C1102.26 -34.7174 1114.27 -31.7623 1125.74 -28.6697C1136.91 -25.5628 1147.5 -22.341 1157.48 -19.0192C1167.12 -15.7054 1176.14 -12.3063 1184.49 -8.82984C1192.54 -5.38893 1199.99 -1.89073 1206.86 1.65094C1213.58 5.16082 1219.85 8.71 1225.74 12.2931C1231.72 15.8284 1237.56 19.396 1243.37 23.0058C1249.6 26.5542 1256.08 30.1439 1262.93 33.778C1270.59 37.3594 1278.88 40.9915 1287.92 44.6767C1298.02 48.3221 1309.03 52.0245 1320.94 55.7909C1333.91 59.5247 1347.74 63.3213 1362.31 67.1923C1377.58 71.0228 1393.27 74.9268 1409.1 78.8916C1424.96 82.8212 1440.4 86.8123 1455.12 90.8581C1468.97 94.855 1481.48 98.892 1492.36 102.984C1501.6 107.009 1508.82 111.08 1513.87 115.185C1517.09 119.241 1518.21 123.341 1517.36 127.481C1515.24 131.591 1511.73 135.768 1507.27 140.009C1502.78 144.256 1498.28 148.589 1494.32 153.034C1491.78 157.52 1490.69 162.125 1491.41 166.857C1494.56 171.66 1499.86 176.593 1507.38 181.669C1517.17 186.799 1528.67 192.046 1541.43 197.402C1555.11 202.786 1568.85 208.243 1581.93 213.756C1593.93 219.251 1603.95 224.764 1611.38 230.281C1616.13 235.735 1617.59 241.169 1615.65 246.582C1610.83 251.935 1603.08 257.269 1592.83 262.595C1581.21 267.896 1568.55 273.216 1555.67 278.58C1543.87 283.97 1533.56 289.373 1525.36 294.811C1520 300.308 1517.36 305.847 1517.46 311.436C1520.42 317.091 1525.53 322.775 1532.22 328.481C1540.23 334.218 1548.47 339.954 1556.18 345.655C1563.11 351.353 1568.18 356.993 1570.92 362.572C1571.32 368.118 1568.81 373.588 1563.32 378.982C1555.29 384.346 1544.62 389.655 1531.74 394.912C1517.29 400.169 1501.6 405.404 1485.22 410.637C1468.86 415.906 1452.89 421.199 1437.76 426.525C1424.03 431.92 1411.79 437.371 1401.23 442.875C1392.66 448.468 1385.84 454.11 1380.61 459.795C1377.09 465.549 1374.71 471.337 1373.16 477.129C1372.47 482.963 1371.9 488.779 1371.13 494.561C1370.2 500.332 1368.44 506.035 1365.61 511.648C1361.88 517.197 1356.71 522.627 1350.06 527.916C1342.17 533.097 1332.75 538.107 1321.9 542.919C1309.91 547.598 1296.68 552.049 1282.43 556.254C1267.38 560.298 1251.62 564.076 1235.36 567.571C1218.78 570.873 1202.02 573.879 1185.21 576.576C1168.52 579.062 1152.04 581.232 1135.84 583.074C1120.04 584.717 1104.64 586.035 1089.69 587.035C1075.23 587.854 1061.22 588.377 1047.64 588.602C1034.55 588.704 1021.83 588.55 1009.43 588.161C997.393 587.724 985.585 587.106 973.924 586.342C962.529 585.613 951.163 584.806 939.787 583.949C928.569 583.238 917.222 582.546 905.74 581.914C894.294 581.526 882.632 581.254 870.713 581.134C858.784 581.327 846.572 581.72 834.042 582.32C821.475 583.282 808.569 584.466 795.358 585.877C782.079 587.63 768.462 589.588 754.566 591.733C740.591 594.161 726.326 596.718 711.796 599.362C697.223 602.175 682.397 604.991 667.327 607.75C652.27 610.538 637.171 613.133 622.089 615.485C607.027 617.71 591.996 619.6 577.003 621.113C562.082 622.384 547.228 623.208 532.496 623.578C517.831 623.615 503.293 623.162 488.9 622.22C474.614 620.924 460.491 619.14 446.564 616.882C432.758 614.298 419.143 611.277 405.768 607.862C392.54 604.179 379.544 600.152 366.808 595.832C354.207 591.329 341.892 586.604 329.876 581.687C317.996 576.701 306.405 571.594 295.132 566.409C283.98 561.255 273.119 556.086 262.582 550.925C252.117 545.88 241.952 540.884 232.045 535.973C222.167 531.227 212.544 526.587 203.119 522.065C193.666 517.735 184.375 513.531 175.246 509.444C165.979 505.561 156.839 501.795 147.756 498.131C138.5 494.654 129.304 491.265 120.152 487.942C110.795 484.784 101.468 481.663 92.2087 478.579C82.7691 475.613 73.4195 472.648 64.1977 469.672C54.8554 466.779 45.6991 463.848 36.749 460.864C27.8105 457.923 19.1531 454.91 10.833 451.813C2.58155 448.738 -5.29358 445.558 -12.7903 442.259C-20.1623 438.969 -27.0998 435.547 -33.6758 431.998C-40.1588 428.43 -46.2793 424.727 -52.0361 420.883C-57.7717 417.018 -63.2145 413.003 -68.3667 408.852C-73.5674 404.664 -78.5304 400.332 -83.2216 395.871C-87.9805 391.379 -92.4846 386.751 -96.7181 382.001C-100.964 377.215 -104.887 372.315 -108.469 367.309C-111.994 362.275 -115.106 357.137 -117.807 351.909C-120.416 346.662 -122.597 341.324 -124.333 335.904C-125.995 330.479 -127.285 324.97 -128.204 319.391C-129.138 313.797 -129.775 308.139 -130.131 302.416C-130.613 296.69 -130.833 290.899 -130.847 285.056C-130.967 279.203 -130.828 273.299 -130.41 267.344C-130.029 261.389 -129.272 255.456 -128.123 249.554C-126.92 243.654 -125.253 237.785 -123.104 231.95C-120.848 226.116 -118.109 220.316 -114.908 214.554C-111.634 208.795 -107.95 203.059 -103.911 197.367C-99.8531 191.669 -95.5121 186.005 -90.9058 180.376C-86.3523 174.739 -81.5685 169.129 -76.5563 163.56C-71.6149 157.982 -66.4262 152.438 -60.9733 146.936C-55.5373 141.427 -49.782 135.953 -43.7086 130.523C-37.5993 125.093 -31.118 119.708 -24.2836 114.374C-17.3593 109.041 -10.1 103.76 -2.48767 98.5295C5.14052 93.3136 13.0668 88.1547 21.2361 83.0585C29.3663 77.9828 37.7037 72.9689 46.2102 68.0304C54.5867 63.1174 63.1133 58.2863 71.753 53.5435C80.2436 48.8329 88.8642 44.2181 97.5947 39.7129C106.229 35.2482 115.027 30.8943 124.022 26.6735C132.973 22.5016 142.174 18.471 151.642 14.5822C161.192 10.7524 171.061 7.0799 181.248 3.56462C191.589 0.117093 202.301 -3.1648 213.366 -6.27439C224.601 -9.3158 236.208 -12.1845 248.149 -14.8813C260.242 -17.5103 272.653 -19.9678 285.344 -22.2476C298.154 -24.4818 311.192 -26.5537 324.442 -28.4709C337.739 -30.3442 351.213 -32.0707 364.792 -33.652C378.387 -35.2258 392.052 -36.6624 405.808 -37.9828C419.511 -39.3115 433.27 -40.532 447.086 -41.644C460.799 -42.8013 474.572 -43.8716 488.369 -44.8628C502.085 -45.913 515.844 -46.8909 529.649 -47.8106C543.374 -48.8035 557.182 -49.7445 571.036 -50.6345C584.848 -51.604 598.726 -52.5363 612.722 -53.4087C626.659 -54.3681 640.714 -55.2749 654.886 -56.1218C669.052 -57.0474 683.333 -57.8989 697.766 -58.6756C712.188 -59.5024 726.758 -60.2402 741.493 -60.8671C756.233 -61.5296 771.116 -62.0603 786.193 -62.4438" stroke="url(#paint1_linear_718_24660)" stroke-width="2.5" stroke-linecap="round" stroke-dasharray="13 16"/>
<path opacity="0.88" d="M838.127 -47.6946C852.774 -47.7626 867.32 -47.6704 881.763 -47.4181C896.175 -47.1242 910.479 -46.6489 924.618 -45.9877C938.739 -45.2628 952.675 -44.3457 966.443 -43.2285C980.132 -42.029 993.618 -40.6381 1006.86 -39.0363C1020.01 -37.36 1032.86 -35.4824 1045.4 -33.4115C1057.79 -31.2685 1069.84 -28.9409 1081.49 -26.4383C1092.94 -23.8732 1103.96 -21.1489 1114.5 -18.2749C1124.85 -15.3527 1134.67 -12.2975 1143.96 -9.12336C1153.03 -5.93097 1161.56 -2.62761 1169.55 0.765511C1177.38 4.16525 1184.68 7.64061 1191.53 11.1808C1198.29 14.7097 1204.68 18.3005 1210.75 21.9479C1216.94 25.5649 1222.95 29.2309 1228.91 32.9519C1235.24 36.6401 1241.7 40.3774 1248.41 44.1626C1255.75 47.9267 1263.55 51.7408 1271.91 55.6171C1281.11 59.4681 1290.99 63.3872 1301.6 67.3758C1313.12 71.3356 1325.37 75.3649 1338.28 79.4685C1351.89 83.5402 1365.99 87.6777 1380.38 91.8648C1395.02 96.0204 1409.55 100.214 1423.75 104.442C1437.49 108.614 1450.4 112.796 1462.18 116.99C1472.81 121.094 1481.89 125.198 1489.23 129.285C1496.89 135.258 1500.51 147.024 1497.16 152.849C1493.69 156.695 1489.41 160.59 1484.73 164.545C1480.46 168.519 1476.65 172.601 1473.71 176.81C1472.37 181.093 1472.59 185.535 1474.6 190.14C1478.85 194.857 1485.02 199.743 1493.02 204.8C1502.89 209.944 1514 215.226 1525.91 220.624C1538.32 226.045 1550.44 231.531 1561.62 237.046C1571.57 242.503 1579.47 247.935 1584.85 253.315C1587.7 258.583 1587.53 263.774 1584.28 268.879C1578.48 273.871 1570.03 278.798 1559.41 283.687C1547.62 288.521 1534.9 293.37 1521.98 298.266C1510.03 303.208 1499.38 308.203 1490.62 313.28C1484.35 318.473 1480.54 323.774 1479.18 329.182C1480.48 334.715 1483.79 340.334 1488.65 346.026C1494.94 351.785 1501.62 357.563 1508.09 363.323C1514.13 369.077 1518.74 374.765 1521.45 380.364C1522.27 385.888 1520.54 391.301 1516.14 396.588C1509.38 401.787 1500.09 406.875 1488.5 411.862C1475.21 416.798 1460.37 421.677 1444.47 426.506C1428.12 431.349 1411.65 436.194 1395.5 441.061C1380.17 445.996 1365.9 450.987 1352.89 456.037C1341.53 461.185 1331.66 466.411 1323.34 471.688C1316.7 477.064 1311.37 482.48 1307.11 487.918C1304.04 493.404 1301.54 498.881 1299.33 504.314C1297.48 509.735 1295.34 515.072 1292.69 520.291C1289.63 525.433 1285.64 530.424 1280.55 535.228C1274.58 539.904 1267.34 544.363 1258.83 548.584C1249.32 552.636 1238.58 556.422 1226.71 559.94C1213.99 563.254 1200.34 566.288 1185.94 569.013C1170.99 571.542 1155.55 573.76 1139.78 575.669C1123.8 577.389 1107.72 578.795 1091.66 579.901C1075.7 580.826 1059.94 581.466 1044.43 581.824C1029.2 582.036 1014.31 582 999.765 581.714C985.573 581.352 971.732 580.783 958.236 580.03C945.068 579.271 932.177 578.374 919.534 577.374C907.158 576.451 894.945 575.471 882.824 574.481C870.874 573.65 858.948 572.863 847.002 572.139C835.129 571.655 823.147 571.296 811.031 571.081C798.918 571.16 786.607 571.416 774.093 571.863C761.519 572.638 748.688 573.601 735.618 574.761C722.472 576.234 709.057 577.88 695.399 579.672C681.647 581.718 667.649 583.861 653.431 586.071C639.168 588.431 624.693 590.773 610.036 593.057C595.371 595.369 580.743 597.496 566.182 599.397C551.654 601.191 537.216 602.682 522.917 603.828C508.701 604.755 494.64 605.288 480.777 605.4C467.034 605.231 453.518 604.606 440.227 603.532C427.102 602.144 414.22 600.308 401.629 598.041C389.183 595.472 377.058 592.496 365.211 589.138C353.544 585.537 342.196 581.6 331.153 577.368C320.27 572.965 309.693 568.325 299.43 563.485C289.301 558.558 279.468 553.494 269.936 548.329C260.476 543.168 251.267 537.954 242.352 532.725C233.417 527.566 224.727 522.434 216.224 517.346C207.663 512.392 199.245 507.501 190.979 502.712C182.561 498.065 174.239 493.524 165.976 489.085C157.518 484.817 149.104 480.644 140.696 476.572C132.058 472.661 123.433 468.83 114.821 465.078C106.001 461.474 97.202 457.921 88.4619 454.414C79.5565 451.036 70.7563 447.67 62.0949 444.324C53.3681 441.076 44.8464 437.809 36.5834 434.525C28.3351 431.314 20.4254 428.061 12.8386 424.759C5.38425 421.498 -1.70722 418.176 -8.37586 414.773C-14.9078 411.399 -21.0485 407.927 -26.7821 404.367C-32.4084 400.812 -37.657 397.146 -42.5301 393.375C-47.4011 389.598 -51.9438 385.692 -56.2004 381.677C-60.4863 377.64 -64.5176 373.479 -68.2806 369.208C-72.1067 364.905 -75.6802 360.485 -78.9833 355.949C-82.318 351.397 -85.3464 346.73 -88.0551 341.963C-90.7574 337.175 -93.0884 332.297 -95.046 327.322C-96.9457 322.335 -98.4583 317.265 -99.5659 312.114C-100.618 306.959 -101.301 301.721 -101.618 296.413C-101.916 291.099 -101.904 285.721 -101.564 280.272C-101.276 274.821 -100.68 269.305 -99.7944 263.731C-98.9803 258.154 -97.8411 252.52 -96.3811 246.844C-94.9548 241.159 -93.1552 235.499 -91.0002 229.862C-88.8095 224.228 -86.2276 218.618 -83.2388 213.042C-80.1806 207.477 -76.7491 201.936 -72.9107 196.428C-69.0566 190.928 -64.8313 185.46 -60.3084 180.028C-55.7856 174.595 -50.9809 169.19 -45.9166 163.826C-40.888 158.46 -35.6134 153.12 -30.0813 147.828C-24.6027 142.534 -18.8266 137.274 -12.7909 132.056C-6.72146 126.846 -0.358734 121.686 6.35306 116.571C13.1164 111.466 20.2445 106.413 27.6975 101.426C35.2377 96.4504 43.1228 91.5337 51.2949 86.6878C59.5184 81.8514 68.009 77.0921 76.7308 72.4081C85.4284 67.7446 94.2836 63.1601 103.296 58.6547C112.191 54.1796 121.186 49.7953 130.261 45.5079C139.182 41.2492 148.163 37.0938 157.237 33.0502C166.136 29.0486 175.161 25.1678 184.276 21.413C193.321 17.7123 202.521 14.1552 211.917 10.7362C221.311 7.38176 230.948 4.18212 240.846 1.14523C250.816 -1.83089 261.098 -4.64177 271.69 -7.27326C282.428 -9.84771 293.495 -12.249 304.871 -14.4709C316.413 -16.642 328.266 -18.6408 340.414 -20.4752C352.71 -22.2596 365.266 -23.8812 378.05 -25.356C390.968 -26.7958 404.063 -28.0982 417.35 -29.2554C430.693 -30.4171 444.179 -31.4502 457.776 -32.3706C471.397 -33.3114 485.114 -34.1472 498.895 -34.8941C512.668 -35.6771 526.51 -36.3852 540.384 -37.0201C554.242 -37.7203 568.136 -38.3614 582.065 -38.9364C595.981 -39.5908 609.921 -40.2011 623.917 -40.7586C637.885 -41.4034 651.911 -42.0025 665.977 -42.5495C680.032 -43.1831 694.162 -43.763 708.346 -44.283C722.518 -44.8824 736.776 -45.4061 751.122 -45.8612C765.445 -46.3603 779.87 -46.7758 794.37 -47.0802C808.861 -47.4137 823.444 -47.6282 838.109 -47.6954" stroke="url(#paint2_linear_718_24660)" stroke-width="2.5" stroke-linecap="round" stroke-dasharray="21 26"/>
<path opacity="0.93" d="M879.154 -32.2177C893.222 -31.9919 907.1 -31.6277 920.764 -31.1121C934.394 -30.5628 947.8 -29.8411 960.95 -28.9567C974.056 -28.0174 986.898 -26.8944 999.423 -25.5982C1011.9 -24.2262 1024.03 -22.6684 1035.81 -20.933C1047.5 -19.1172 1058.81 -17.1251 1069.72 -14.9592C1080.51 -12.7224 1090.85 -10.3143 1100.77 -7.74763C1110.52 -5.12088 1119.84 -2.34385 1128.67 0.565693C1137.37 3.53083 1145.6 6.62147 1153.37 9.82483C1161.06 13.0582 1168.31 16.3916 1175.17 19.8274C1182.01 23.276 1188.54 26.811 1194.8 30.4291C1201.18 34.0478 1207.41 37.7431 1213.58 41.506C1220.06 45.2691 1226.59 49.1015 1233.3 53.0038C1240.52 56.9061 1248.06 60.8742 1255.98 64.9131C1264.58 68.9562 1273.7 73.0649 1283.37 77.2556C1293.77 81.4333 1304.74 85.6873 1316.27 90.0163C1328.44 94.326 1341.02 98.7008 1353.95 103.129C1367.16 107.526 1380.45 111.958 1393.61 116.417C1406.59 120.812 1419.05 125.215 1430.76 129.608C1441.72 133.904 1451.55 138.165 1460.04 142.387C1470.14 148.497 1480.07 160.252 1479.92 165.906C1476.8 171.387 1465.23 182.311 1458.65 187.895C1455.09 191.688 1452.28 195.614 1450.54 199.693C1450.47 203.885 1451.96 208.265 1455.1 212.842C1460.22 217.558 1466.95 222.468 1475.15 227.554C1484.75 232.745 1495.2 238.069 1506.03 243.5C1517.02 248.934 1527.4 254.412 1536.68 259.878C1544.59 265.247 1550.46 270.552 1553.93 275.752C1555.07 280.787 1553.44 285.7 1549.01 290.488C1542.36 295.112 1533.38 299.644 1522.49 304.106C1510.6 308.497 1497.9 312.897 1485 317.347C1472.98 321.867 1462.09 326.46 1452.84 331.175C1445.82 336.047 1440.93 341.078 1438.25 346.256C1437.98 351.612 1439.58 357.107 1442.69 362.709C1447.23 368.412 1452.35 374.163 1457.47 379.921C1462.47 385.678 1466.43 391.369 1468.9 396.954C1469.88 402.456 1468.69 407.806 1465.18 413.005C1459.55 418.063 1451.56 422.969 1441.36 427.718C1429.39 432.371 1415.7 436.904 1400.68 441.349C1384.87 445.753 1368.51 450.119 1351.99 454.481C1335.84 458.875 1320.24 463.309 1305.48 467.787C1291.93 472.366 1279.61 477.001 1268.58 481.714C1259.08 486.52 1250.87 491.381 1243.84 496.282C1238.13 501.247 1233.29 506.216 1229.09 511.15C1225.64 516.093 1222.37 520.955 1219.07 525.708C1215.87 530.393 1212.19 534.908 1207.89 539.236C1203.15 543.437 1197.52 547.402 1190.91 551.11C1183.58 554.644 1175.19 557.893 1165.78 560.839C1155.6 563.586 1144.46 566.027 1132.5 568.149C1119.88 570.058 1106.6 571.66 1092.78 572.95C1078.54 574.043 1063.97 574.838 1049.16 575.334C1034.19 575.681 1019.17 575.75 1004.17 575.559C989.216 575.264 974.405 574.74 959.78 574.005C945.322 573.223 931.103 572.278 917.116 571.182C903.356 570.11 889.82 568.945 876.521 567.703C863.396 566.56 850.447 565.393 837.654 564.245C824.989 563.257 812.409 562.326 799.9 561.479C787.415 560.866 774.931 560.369 762.403 560.013C749.857 559.938 737.221 560.023 724.471 560.281C711.626 560.829 698.646 561.555 685.52 562.445C672.284 563.616 658.873 564.934 645.281 566.37C631.623 568.032 617.783 569.776 603.814 571.561C589.764 573.485 575.599 575.379 561.351 577.217C547.096 579.069 532.931 580.761 518.932 582.247C504.974 583.642 491.199 584.754 477.631 585.569C464.165 586.196 450.956 586.457 438.021 586.355C425.238 585.996 412.744 585.237 400.582 584.068C388.582 582.621 376.927 580.771 365.637 578.52C354.523 576 343.741 573.105 333.358 569.855C323.118 566.369 313.239 562.568 303.705 558.488C294.307 554.229 285.253 549.735 276.509 545.038C267.848 540.238 259.493 535.286 251.394 530.215C243.328 525.11 235.473 519.94 227.843 514.721C220.16 509.534 212.627 504.344 205.234 499.163C197.692 494.073 190.26 489.02 182.874 484.028C175.311 479.147 167.769 474.339 160.228 469.611C152.46 465.019 144.676 460.505 136.875 456.07C128.845 451.778 120.801 447.557 112.778 443.41C104.547 439.4 96.3656 435.444 88.2502 431.544C80.007 427.764 71.9106 424.025 63.982 420.318C56.006 416.717 48.2812 413.126 40.8431 409.548C33.4589 406.054 26.4271 402.548 19.7479 399.031C13.1883 395.574 7.04694 392.08 1.30302 388.557C-6.91258 383.296 -21.1998 372.522 -27.3589 366.958C-33.1724 361.318 -43.374 349.551 -47.8329 343.42C-50.8274 339.273 -53.562 335.036 -56.0479 330.694C-58.5806 326.333 -60.8501 321.876 -62.821 317.324C-64.8242 312.763 -66.4932 308.109 -67.8168 303.378C-69.1163 298.635 -70.0495 293.809 -70.6049 288.915C-71.1186 284.01 -71.2576 279.045 -70.998 274.006C-70.7384 268.968 -70.101 263.862 -69.089 258.696C-68.0947 253.528 -66.7467 248.306 -65.045 243.029C-63.3578 237.744 -61.3232 232.418 -58.9349 227.038C-56.5466 221.658 -53.8039 216.303 -50.7422 210.97C-47.6596 205.631 -44.2258 200.325 -40.4585 195.049C-36.6766 189.782 -32.5757 184.537 -28.1413 179.323C-23.7278 174.114 -19.0193 168.941 -14.0305 163.795C-9.08031 158.653 -3.87061 153.545 1.5777 148.474C7.00512 143.41 12.6743 138.377 18.5967 133.39C24.5159 128.411 30.7268 123.474 37.2087 118.585C43.7374 113.714 50.5901 108.895 57.7606 104.142C65.0342 99.4027 72.6287 94.7226 80.5701 90.1248C88.5969 85.5402 96.9706 81.0381 105.623 76.6062C114.334 72.2074 123.304 67.8847 132.489 63.6497C141.645 59.4414 150.981 55.3182 160.439 51.2904C169.778 47.2832 179.2 43.3759 188.688 39.5672C197.993 35.7963 207.346 32.1229 216.72 28.5666C225.912 25.0482 235.142 21.6482 244.403 18.3806C253.537 15.1547 262.755 12.0649 272.075 9.11259C281.332 6.22089 290.742 3.47741 300.318 0.890414C309.905 -1.63799 319.73 -4.00492 329.775 -6.21161C339.919 -8.35345 350.336 -10.3313 361.009 -12.1464C371.837 -13.9 382.942 -15.4966 394.303 -16.9304C405.846 -18.3224 417.633 -19.567 429.662 -20.6571C441.861 -21.7207 454.276 -22.6533 466.888 -23.4563C479.624 -24.2505 492.529 -24.9315 505.602 -25.4994C518.758 -26.0903 532.039 -26.5928 545.442 -27C558.899 -27.4467 572.434 -27.8228 586.047 -28.1283C599.71 -28.5027 613.418 -28.816 627.174 -29.0752C640.966 -29.4115 654.809 -29.7008 668.669 -29.9454C682.563 -30.2673 696.475 -30.5445 710.423 -30.7829C724.385 -31.0927 738.382 -31.3567 752.392 -31.5691C766.43 -31.8446 780.496 -32.0603 794.563 -32.1963C808.655 -32.3884 822.741 -32.4869 836.84 -32.4905C850.951 -32.5221 865.044 -32.432 879.136 -32.219" stroke="url(#paint3_linear_718_24660)" stroke-width="2.5" stroke-linecap="round" stroke-dasharray="13 18"/>
<path opacity="0.61" d="M909.654 -16.5819C923.025 -16.1045 936.094 -15.4947 948.899 -14.7561C961.671 -13.9914 974.145 -13.0718 986.286 -12.0007C998.381 -10.8827 1010.12 -9.60105 1021.5 -8.16252C1032.8 -6.65806 1043.73 -4.99151 1054.28 -3.15594C1064.72 -1.25082 1074.75 0.814719 1084.37 3.03737C1093.88 5.33123 1102.98 7.78384 1111.66 10.3797C1120.24 13.0468 1128.41 15.8502 1136.19 18.7847C1143.91 21.766 1151.28 24.8817 1158.3 28.1179C1165.32 31.399 1172.1 34.7882 1178.62 38.2854C1185.28 41.8167 1191.77 45.4505 1198.22 49.1743C1204.88 52.9267 1211.6 56.779 1218.41 60.7208C1225.62 64.6853 1233.05 68.737 1240.74 72.8793C1248.95 77.042 1257.51 81.2967 1266.49 85.6344C1276.04 89.982 1286.01 94.4144 1296.4 98.9298C1307.29 103.435 1318.55 108.018 1330.08 112.656C1341.91 117.265 1353.85 121.919 1365.73 126.598C1377.57 131.222 1389.09 135.846 1400.12 140.459C1410.66 144.974 1420.39 149.448 1429.11 153.865C1436.94 158.152 1443.5 162.355 1448.7 166.474C1454.04 172.386 1455.85 183.573 1452.77 188.905C1447.84 194.077 1435.54 204.475 1429.9 209.879C1426.49 215.532 1427.58 227.939 1432.88 234.77C1438.59 239.552 1445.56 244.519 1453.62 249.671C1462.7 254.912 1472.22 260.275 1481.77 265.714C1491.18 271.134 1499.79 276.549 1507.13 281.926C1513.09 287.163 1517.05 292.285 1518.74 297.264C1518.3 302.042 1515.36 306.655 1509.93 311.098C1502.59 315.367 1493.19 319.508 1482.09 323.559C1470.21 327.53 1457.6 331.511 1444.79 335.54C1432.77 339.644 1421.73 343.855 1412.08 348.198C1404.39 352.735 1398.57 357.455 1394.68 362.368C1392.98 367.494 1393 372.784 1394.44 378.223C1397.3 383.797 1400.82 389.447 1404.56 395.12C1408.41 400.816 1411.56 406.454 1413.6 411.986C1414.5 417.426 1413.64 422.705 1410.79 427.796C1406.15 432.739 1399.38 437.472 1390.51 442.014C1379.93 446.408 1367.6 450.629 1353.76 454.707C1338.92 458.704 1323.21 462.604 1306.99 466.441C1290.69 470.278 1274.52 474.105 1258.76 477.949C1243.78 481.86 1229.65 485.815 1216.54 489.822C1204.69 493.927 1193.98 498.09 1184.4 502.293C1176.12 506.583 1168.82 510.878 1162.39 515.167C1156.92 519.49 1152 523.755 1147.42 527.92C1141.25 534.05 1128.18 545.297 1120.39 550.271C1111.34 554.745 1088.52 561.932 1074.68 564.604C1064.61 566.08 1053.83 567.24 1042.42 568.084C1030.54 568.751 1018.16 569.115 1005.37 569.198C992.256 569.126 978.884 568.802 965.331 568.227C951.628 567.564 937.85 566.69 924.054 565.63C910.24 564.539 896.479 563.3 882.825 561.946C869.188 560.623 855.686 559.233 842.326 557.79C829.012 556.454 815.83 555.115 802.761 553.802C789.723 552.653 776.756 551.57 763.865 550.574C750.967 549.805 738.076 549.146 725.215 548.622C712.272 548.354 699.294 548.236 686.28 548.268C673.159 548.569 659.981 549.025 646.698 549.626C633.32 550.473 619.844 551.451 606.293 552.524C592.62 553.797 578.887 555.139 565.098 556.511C551.242 557.995 537.36 559.461 523.459 560.867C509.549 562.286 495.854 563.565 482.364 564.658C468.942 565.67 455.776 566.443 442.918 566.952C430.143 567.293 417.71 567.314 405.635 567.018C393.699 566.494 382.126 565.616 370.954 564.381C359.955 562.89 349.34 561.041 339.148 558.83C329.104 556.375 319.491 553.574 310.238 550.455C301.158 547.111 292.442 543.472 284.112 539.562C275.87 535.477 267.958 531.153 260.369 526.632C252.833 521.991 245.543 517.191 238.502 512.253C231.442 507.255 224.586 502.167 217.885 497.005C211.074 491.84 204.394 486.644 197.796 481.433C191.025 476.265 184.319 471.11 177.619 465.977C170.724 460.922 163.817 455.916 156.902 450.954C149.737 446.1 142.573 441.304 135.41 436.567C128.006 431.954 120.639 427.403 113.286 422.919C105.771 418.551 98.3481 414.244 91.032 410.005C83.6312 405.876 76.3845 401.797 69.3661 397.77C62.3548 393.853 55.6193 389.97 49.1947 386.123C42.8464 382.365 36.835 378.63 31.2254 374.905C23.1762 369.432 9.26635 358.541 3.36091 353.074C-2.08595 347.613 -11.3261 336.469 -15.2385 330.737C-18.9955 324.931 -25.533 312.901 -28.2919 306.67C-30.1541 302.473 -31.7783 298.188 -33.0986 293.829C-34.4848 289.458 -35.5805 285.003 -36.3591 280.484C-37.1293 275.951 -37.5473 271.355 -37.5957 266.7C-37.6008 262.034 -37.2404 257.315 -36.4579 252.541C-35.6361 247.764 -34.4315 242.934 -32.8264 238.055C-31.1687 233.181 -29.1107 228.257 -26.6914 223.286C-24.2196 218.321 -21.3691 213.311 -18.1615 208.261C-14.9189 203.215 -11.3529 198.185 -7.45424 193.186C-3.57313 188.186 0.605557 183.214 5.08181 178.27C9.52305 173.323 14.2269 168.401 19.2023 163.519C24.1253 158.633 29.2891 153.776 34.6721 148.955C39.9984 144.136 45.5655 139.347 51.3434 134.607C57.0863 129.864 63.0617 125.165 69.287 120.511C75.4864 115.87 81.9884 111.28 88.7802 106.761C95.6245 102.247 102.794 97.8074 110.275 93.4343C117.87 89.0866 125.785 84.8206 134.039 80.638C142.407 76.4808 151.092 72.4123 160.071 68.4376C169.125 64.492 178.422 60.6354 187.952 56.8814C197.453 53.1466 207.13 49.5165 216.932 45.9861C226.644 42.4836 236.427 39.076 246.253 35.7821C255.899 32.508 265.571 29.346 275.232 26.2929C284.689 23.2717 294.131 20.3662 303.572 17.5852C312.826 14.8377 322.113 12.2179 331.391 9.73628C340.574 7.28961 349.795 4.99308 359.115 2.83782C368.372 0.727721 377.776 -1.22921 387.328 -3.03296C396.89 -4.79184 406.656 -6.39948 416.619 -7.84205C426.669 -9.24695 436.96 -10.4973 447.472 -11.5948C458.094 -12.6598 468.978 -13.5756 480.092 -14.3523C491.345 -15.1158 502.83 -15.7402 514.54 -16.248C526.376 -16.7511 538.425 -17.1462 550.629 -17.4314C562.995 -17.7378 575.511 -17.9568 588.16 -18.0899C600.925 -18.2632 613.815 -18.3661 626.811 -18.4004C639.898 -18.492 653.082 -18.5304 666.307 -18.5137C679.647 -18.5665 693.015 -18.5728 706.432 -18.5379C719.913 -18.5774 733.435 -18.5618 746.957 -18.5169C760.556 -18.5379 774.147 -18.5157 787.723 -18.4364C801.357 -18.4248 814.99 -18.3474 828.562 -18.2025C842.182 -18.1044 855.772 -17.9284 869.287 -17.6572C882.814 -17.4067 896.278 -17.0523 909.636 -16.5836" stroke="url(#paint4_linear_718_24660)" stroke-width="2.5" stroke-linecap="round" stroke-dasharray="24 4"/>
<path opacity="0.18" d="M932.093 -1.10413C944.651 -0.410095 956.911 0.404376 968.86 1.33039C980.782 2.29049 992.344 3.37845 1003.58 4.59841C1014.75 5.87084 1025.58 7.28001 1036.03 8.8375C1046.39 10.459 1056.4 12.2241 1066.02 14.1354C1075.56 16.1197 1084.71 18.2591 1093.48 20.5379C1106.38 24.137 1130.34 32.1661 1141.51 36.5704C1148.87 39.6261 1155.99 42.8084 1162.9 46.1146C1169.9 49.4762 1176.76 52.97 1183.53 56.5797C1190.49 60.2414 1197.45 64.0225 1204.44 67.9114C1211.72 71.8491 1219.12 75.9069 1226.7 80.0666C1234.65 84.2648 1242.85 88.5732 1251.31 92.9732C1260.19 97.416 1269.36 101.946 1278.8 106.567C1288.64 111.2 1298.71 115.911 1308.97 120.684C1319.49 125.449 1330.08 130.26 1340.65 135.099C1351.21 139.9 1361.55 144.696 1371.53 149.494C1381.19 154.194 1390.24 158.858 1398.57 163.465C1406.21 167.946 1412.89 172.341 1418.48 176.641C1424.9 182.799 1430.11 194.347 1428.96 199.747C1425.72 204.887 1415.05 214.868 1408.86 219.863C1403.58 224.997 1397.54 236.076 1397.92 242.164C1400.06 246.462 1403.44 250.967 1408.03 255.691C1413.98 260.565 1420.85 265.622 1428.44 270.834C1436.7 276.117 1445.08 281.482 1453.2 286.891C1460.97 292.249 1467.75 297.564 1473.19 302.793C1477.27 307.851 1479.46 312.757 1479.51 317.481C1477.67 321.971 1473.59 326.267 1467.31 330.366C1459.39 334.276 1449.69 338.039 1438.51 341.701C1426.69 345.284 1414.21 348.857 1401.57 352.492C1389.61 356.2 1378.48 360.024 1368.53 364.003C1360.29 368.187 1353.68 372.574 1348.74 377.177C1345.76 382.013 1344.31 387.049 1344.2 392.245C1345.47 397.614 1347.46 403.083 1349.8 408.595C1352.43 414.149 1354.66 419.663 1356.09 425.088C1356.75 430.421 1355.99 435.591 1353.61 440.567C1349.75 445.365 1344.02 449.948 1336.42 454.298C1327.24 458.458 1316.35 462.408 1303.93 466.157C1290.38 469.773 1275.75 473.236 1260.33 476.581C1244.53 479.875 1228.49 483.11 1212.47 486.302C1196.86 489.521 1181.71 492.751 1167.25 496.004C1153.72 499.338 1141.1 502.7 1129.45 506.104C1118.93 509.598 1109.42 513.109 1100.8 516.623C1093.23 520.196 1086.41 523.731 1080.18 527.204C1072.07 532.357 1057.48 541.889 1050.16 546.117C1042.47 549.928 1024.3 555.973 1013.55 558.145C1001.54 559.75 973.934 561.226 958.495 561.124C947.69 560.842 936.481 560.302 924.941 559.529C913.128 558.671 901.086 557.622 888.843 556.393C876.432 555.137 863.911 553.755 851.308 552.259C838.599 550.803 825.857 549.291 813.118 547.727C800.278 546.27 787.473 544.817 774.686 543.389C761.82 542.115 748.974 540.91 736.141 539.789C723.213 538.864 710.298 538.046 697.364 537.351C684.326 536.89 671.263 536.56 658.152 536.365C644.939 536.404 631.672 536.585 618.369 536.888C604.943 537.4 591.486 538.027 577.995 538.747C564.402 539.625 550.778 540.567 537.179 541.527C523.514 542.598 509.874 543.635 496.311 544.621C482.738 545.622 469.446 546.499 456.422 547.223C443.456 547.872 430.817 548.314 418.527 548.523C406.34 548.595 394.533 548.393 383.133 547.905C371.885 547.219 361.042 546.225 350.627 544.917C340.367 543.382 330.54 541.527 321.141 539.359C311.902 536.957 303.069 534.246 294.648 531.242C286.366 528.032 278.447 524.545 270.914 520.8C263.437 516.883 256.303 512.738 249.439 508.388C242.612 503.916 236.035 499.266 229.682 494.471C223.271 489.603 217.047 484.615 210.946 479.538C204.741 474.426 198.635 469.259 192.599 464.048C186.405 458.848 180.239 453.637 174.095 448.421C167.766 443.249 161.444 438.094 155.113 432.974C148.599 427.922 142.088 422.915 135.609 417.964C128.972 413.098 122.383 408.289 115.862 403.542C109.24 398.901 102.754 394.328 96.4137 389.81C90.0418 385.408 83.8849 381.068 77.9656 376.786C72.0991 372.608 66.5218 368.494 61.2837 364.428C56.1209 360.461 51.3199 356.537 46.891 352.643C40.6054 346.948 30.0397 335.74 25.7221 330.177C21.7611 324.664 15.2259 313.522 12.5469 307.858C9.92678 302.141 5.48889 290.373 3.68828 284.323C2.42957 280.243 1.40054 276.108 0.599603 271.897C-0.253019 267.68 -0.836298 263.405 -1.10534 259.064C-1.39162 254.721 -1.33963 250.33 -0.909731 245.887C-0.440159 241.441 0.414126 236.959 1.66356 232.428C3.01636 227.909 4.77632 223.35 6.95544 218.759C9.22592 214.172 11.8983 209.551 14.9899 204.899C18.1452 200.261 21.7076 195.583 25.6616 190.885C29.638 186.183 33.9296 181.51 38.5366 176.868C43.1092 172.222 47.9401 167.607 53.0175 163.013C58.0379 158.421 63.2995 153.857 68.7454 149.323C74.1172 144.788 79.6785 140.275 85.4136 135.805C91.0798 131.327 96.925 126.886 102.979 122.491C108.958 118.096 115.146 113.747 121.571 109.457C127.986 105.18 134.661 100.957 141.614 96.8123C148.614 92.6802 155.945 88.6325 163.571 84.6648C171.308 80.7252 179.37 76.8768 187.752 73.1262C196.278 69.4078 205.102 65.792 214.207 62.2769C223.416 58.7966 232.884 55.4216 242.569 52.1547C252.268 48.9192 262.146 45.7943 272.151 42.774C282.083 39.7747 292.097 36.8895 302.158 34.1141C312.073 31.3584 321.984 28.7063 331.88 26.1715C341.572 23.6571 351.221 21.2489 360.833 18.9629C370.236 16.7039 379.589 14.5581 388.923 12.5364C402.658 9.60599 429.949 4.44549 443.66 2.23403C457.367 0.200598 485.447 -3.11653 499.9 -4.40561C514.656 -5.52451 545.307 -7.08984 561.206 -7.56561C572.028 -7.84618 583.034 -8.02286 594.23 -8.10247C605.571 -8.20171 617.085 -8.20595 628.763 -8.13088C640.587 -8.09796 652.541 -7.98986 664.631 -7.8134C676.842 -7.69684 689.177 -7.5208 701.601 -7.28942C714.128 -7.12 726.751 -6.90204 739.416 -6.64175C752.185 -6.44343 765.002 -6.20958 777.834 -5.92182C790.741 -5.70698 803.68 -5.43616 816.583 -5.11764C829.567 -4.85633 842.504 -4.53367 855.412 -4.14761C868.35 -3.80244 881.232 -3.38229 894.011 -2.87766C906.812 -2.37778 919.511 -1.79342 932.075 -1.1062" stroke="url(#paint5_linear_718_24660)" stroke-width="2.5" stroke-linecap="round" stroke-dasharray="8 12"/>
<path opacity="0.46" d="M950.143 14.2937C961.901 15.1802 973.356 16.1666 984.517 17.2621C995.646 18.3909 1006.46 19.6331 1016.95 20.9951C1027.38 22.4015 1037.49 23.9437 1047.25 25.6167C1061.65 28.2843 1088.71 34.4296 1101.4 37.9031C1113.75 41.6316 1137.11 49.9236 1148.25 54.4776C1155.68 57.6315 1162.95 60.9232 1170.11 64.3577C1177.39 67.8545 1184.63 71.4906 1191.84 75.2593C1199.25 79.0867 1206.71 83.0498 1214.26 87.1337C1222.04 91.2811 1229.95 95.5384 1238.02 99.9169C1246.36 104.335 1254.85 108.867 1263.52 113.492C1272.44 118.147 1281.47 122.887 1290.63 127.698C1299.94 132.516 1309.26 137.381 1318.54 142.292C1327.79 147.17 1336.85 152.059 1345.64 156.944C1354.18 161.764 1362.24 166.537 1369.72 171.271C1376.72 175.888 1382.97 180.427 1388.35 184.869C1394.87 191.261 1401.61 203.226 1401.74 208.793C1399.87 214.038 1391.41 223.986 1385.63 228.82C1379.91 233.657 1370.29 243.79 1367.5 249.274C1367.06 253.127 1367.59 257.173 1369.15 261.438C1372.02 265.871 1375.89 270.511 1380.71 275.35C1386.55 280.323 1393 285.452 1399.84 290.708C1407.05 295.993 1414.09 301.33 1420.67 306.668C1426.72 311.914 1431.69 317.079 1435.31 322.108C1437.62 326.945 1438.15 331.591 1436.74 336.024C1433.68 340.207 1428.62 344.175 1421.63 347.931C1413.26 351.485 1403.34 354.882 1392.17 358.171C1380.46 361.375 1368.19 364.574 1355.75 367.823C1343.92 371.154 1332.79 374.601 1322.64 378.207C1313.99 382.024 1306.7 386.062 1300.86 390.311C1296.75 394.812 1294.02 399.531 1292.49 404.431C1292.28 409.523 1292.81 414.723 1293.79 419.997C1295.2 425.341 1296.44 430.66 1297.16 435.904C1297.39 441.075 1296.56 446.085 1294.47 450.911C1291.2 455.557 1286.34 459.972 1279.88 464.131C1272.03 468.088 1262.58 471.788 1251.67 475.252C1239.61 478.542 1226.37 481.63 1212.18 484.532C1197.39 487.34 1182.08 490.019 1166.51 492.608C1150.98 495.172 1135.61 497.697 1120.56 500.195C1106.12 502.743 1092.32 505.292 1079.25 507.857C1067.09 510.504 1055.78 513.158 1045.34 515.825C1031.51 519.92 1008.82 527.997 999.413 531.856C991.165 535.565 975.778 542.058 968.022 544.722C950.947 548.495 920.394 551.025 908.266 550.783C895.22 550.126 866.682 547.606 851.388 545.84C840.815 544.587 830.002 543.201 818.974 541.715C807.728 540.258 796.326 538.74 784.775 537.178C773.023 535.708 761.174 534.239 749.222 532.778C737.11 531.468 724.897 530.204 712.622 529.007C700.185 527.984 687.679 527.056 675.101 526.225C662.372 525.599 649.576 525.085 636.714 524.683C623.717 524.489 610.654 524.406 597.554 524.425C584.32 524.629 571.062 524.92 557.793 525.286C544.403 525.801 531.04 526.351 517.708 526.927C504.302 527.584 490.977 528.215 477.77 528.802C464.534 529.401 451.591 529.89 438.983 530.246C426.431 530.541 414.217 530.659 402.395 530.582C390.657 530.374 379.342 529.94 368.433 529.253C357.663 528.397 347.313 527.275 337.418 525.871C327.646 524.272 318.33 522.39 309.428 520.228C300.68 517.86 292.347 515.211 284.416 512.294C276.592 509.18 269.135 505.816 262.039 502.209C255.008 498.429 248.289 494.437 241.838 490.24C235.43 485.914 229.248 481.408 223.259 476.755C217.25 472.001 211.41 467.127 205.71 462.144C199.922 457.111 194.232 451.994 188.615 446.818C182.897 441.628 177.226 436.407 171.598 431.162C165.854 425.938 160.133 420.709 154.473 415.497C148.683 410.343 142.949 405.211 137.297 400.114C131.548 395.102 125.915 390.129 120.413 385.221C114.865 380.405 109.488 375.652 104.316 370.966C99.1652 366.383 94.2594 361.865 89.6096 357.423C85.0603 353.079 80.7902 348.806 76.856 344.604C71.2691 338.469 61.9381 326.59 58.1852 320.813C54.8216 315.154 49.571 303.961 47.5676 298.386C45.6441 292.808 42.5768 281.515 41.3396 275.756C40.0614 269.938 38.1541 258.017 37.6156 251.92C37.2604 247.83 37.1595 243.694 37.3466 239.517C37.5337 235.339 38.0425 231.125 38.907 226.879C39.8453 222.637 41.1729 218.368 42.9174 214.083C44.7526 209.804 47.0216 205.513 49.7369 201.195C52.5472 196.899 55.7914 192.59 59.4756 188.262C63.2443 183.946 67.4299 179.615 71.9924 175.271C76.6056 170.934 81.5184 166.626 86.7183 162.359C91.8675 158.085 97.2763 153.841 102.882 149.634C108.409 145.407 114.109 141.221 119.978 137.06C125.723 132.888 131.631 128.747 137.678 124.642C143.6 120.526 149.68 116.448 155.903 112.422C162.052 108.392 168.402 104.415 174.93 100.494C181.446 96.5859 188.19 92.7417 195.184 88.9794C202.216 85.2379 209.548 81.5858 217.165 78.0205C224.88 74.4925 232.924 71.0654 241.262 67.7344C249.738 64.4613 258.508 61.2843 267.571 58.2259C276.743 55.2138 286.181 52.3087 295.831 49.5256C305.541 46.7816 315.436 44.148 325.475 41.6266C335.478 39.1453 345.574 36.7688 355.725 34.4989C365.754 32.2568 375.797 30.123 385.837 28.0951C395.689 26.0851 405.497 24.1827 415.24 22.3922C429.519 19.7677 457.416 15.1054 471.09 13.0682C484.47 11.1627 511.061 7.96457 524.374 6.68684C537.682 5.53749 564.807 3.86697 578.717 3.32892C592.885 2.90447 622.177 2.57436 637.326 2.64197C647.601 2.68997 658.063 2.82591 668.678 3.04484C679.428 3.22262 690.342 3.47004 701.382 3.78886C712.563 4.05984 723.87 4.37971 735.286 4.76851C746.838 5.09366 758.477 5.46945 770.204 5.89588C782.043 6.26288 793.935 6.6756 805.881 7.13404C817.911 7.54394 829.977 7.9971 842.026 8.50865C854.166 8.96498 866.267 9.48392 878.345 10.0679C890.454 10.6185 902.518 11.2384 914.485 11.9427C926.487 12.6294 938.361 13.4115 950.126 14.2913" stroke="url(#paint6_linear_718_24660)" stroke-width="2.5" stroke-linecap="round" stroke-dasharray="21 15"/>
<path opacity="0.47" d="M967.391 30.0665C978.387 31.1195 989.121 32.2672 999.596 33.5254C1010.05 34.8033 1020.24 36.1983 1030.16 37.7103C1044.82 40.1041 1072.7 45.6069 1085.92 48.7449C1098.85 52.115 1123.48 59.6813 1135.28 63.8815C1143.09 66.8084 1150.76 69.8817 1158.29 73.0949C1165.89 76.3832 1173.39 79.8236 1180.84 83.3957C1188.37 87.0522 1195.9 90.8396 1203.43 94.7674C1211.08 98.7562 1218.77 102.882 1226.5 107.124C1234.38 111.424 1242.31 115.841 1250.28 120.366C1258.41 124.925 1266.56 129.574 1274.71 134.308C1282.92 139.054 1291.08 143.869 1299.14 148.72C1307.15 153.563 1314.97 158.419 1322.52 163.29C1329.85 168.093 1336.8 172.884 1343.25 177.628C1349.32 182.284 1354.78 186.863 1359.55 191.371C1363.77 195.746 1367.19 200.013 1369.78 204.167C1372.24 210.125 1371.85 221.219 1369.18 226.383C1365.21 231.31 1354.66 240.839 1348.87 245.583C1343.77 250.437 1336.56 260.848 1335.22 266.54C1335.68 270.559 1337 274.773 1339.19 279.193C1342.44 283.78 1346.46 288.555 1351.14 293.498C1356.54 298.55 1362.29 303.717 1368.13 308.962C1374.08 314.21 1379.66 319.457 1384.62 324.659C1388.95 329.743 1392.18 334.7 1394.08 339.49C1394.75 344.065 1393.79 348.416 1391.09 352.535C1386.94 356.403 1381.05 360.032 1373.52 363.44C1364.81 366.645 1354.79 369.693 1343.68 372.623C1332.17 375.475 1320.16 378.311 1307.98 381.189C1296.32 384.156 1285.26 387.234 1275.02 390.462C1266.05 393.909 1258.25 397.565 1251.68 401.434C1246.62 405.573 1242.75 409.917 1239.99 414.461C1238.44 419.206 1237.62 424.084 1237.33 429.046C1237.55 434.106 1237.78 439.15 1237.74 444.149C1237.45 449.095 1236.4 453.904 1234.39 458.522C1231.52 462.992 1227.38 467.226 1221.88 471.195C1215.21 474.955 1207.16 478.444 1197.75 481.661C1187.26 484.673 1175.58 487.442 1162.92 489.98C1149.51 492.373 1135.42 494.586 1120.85 496.645C1106.06 498.643 1091.13 500.532 1076.28 502.349C1061.68 504.163 1047.46 505.948 1033.71 507.707C1020.59 509.521 1008.13 511.323 996.382 513.124C980.339 515.932 953.08 521.535 941.628 524.257C922.953 529.307 898.664 535.368 890.887 536.667C874.26 537.975 845.715 537.41 834.723 536.389C822.973 535.112 797.372 531.737 783.601 529.746C774.069 528.418 764.26 527.018 754.212 525.569C743.9 524.199 733.375 522.808 722.667 521.424C711.707 520.16 700.559 518.925 689.246 517.731C677.72 516.696 666.042 515.727 654.228 514.828C642.194 514.093 630.051 513.456 617.806 512.894C605.342 512.512 592.809 512.211 580.213 511.985C567.453 511.925 554.645 511.927 541.802 511.977C528.847 512.148 515.896 512.35 502.994 512.561C489.997 512.841 477.085 513.096 464.271 513.299C451.442 513.515 438.916 513.635 426.696 513.637C414.527 513.594 402.715 513.387 391.26 513.016C379.905 512.538 368.949 511.858 358.409 510.961C342.978 509.282 314.439 504.459 301.303 501.287C292.843 498.916 284.767 496.285 277.055 493.413C269.481 490.364 262.263 487.08 255.37 483.573C248.577 479.905 242.072 476.029 235.839 471.96C229.653 467.759 223.711 463.391 217.973 458.855C212.232 454.234 206.682 449.475 201.295 444.604C195.867 439.663 190.565 434.644 185.39 429.545C180.164 424.422 175.035 419.246 170.015 414.042C164.915 408.839 159.943 403.628 155.051 398.415C150.133 393.244 145.33 388.093 140.659 382.965C135.989 377.907 131.462 372.897 127.119 367.934C122.819 363.057 118.705 358.242 114.85 353.496C111.047 348.844 107.52 344.263 104.261 339.76C101.088 335.357 98.2134 331.021 95.6473 326.762C92.0732 320.533 86.5622 308.514 84.5718 302.683C82.8557 296.978 80.5009 285.729 79.7591 280.138C79.012 274.568 77.9879 263.325 77.6663 257.619C77.2344 251.871 76.8825 240.161 77.078 234.218C77.3877 228.225 79.3377 216.12 81.1501 210.029C83.4397 203.951 90.2451 191.807 94.8032 185.755C98.1299 181.745 101.908 177.735 106.09 173.732C110.395 169.743 115.104 165.762 120.2 161.785C125.337 157.808 130.761 153.872 136.442 149.989C142.097 146.093 147.951 142.232 153.978 138.409C159.906 134.568 165.985 130.769 172.18 126.99C178.244 123.204 184.417 119.444 190.691 115.718C196.835 111.985 203.08 108.284 209.445 104.636C215.703 100.976 222.122 97.368 228.678 93.8303C235.211 90.2962 241.922 86.8318 248.854 83.4522C255.821 80.0942 263.042 76.8266 270.502 73.6626C278.08 70.5344 285.937 67.509 294.083 64.5956C302.332 61.7311 310.903 58.9844 319.731 56.3599C328.68 53.7873 337.893 51.3303 347.333 49.0059C356.851 46.7181 366.563 44.5571 376.419 42.5144C386.312 40.5091 396.3 38.6136 406.353 36.8379C416.36 35.0854 426.398 33.4472 436.425 31.908C451.239 29.6805 480.377 25.7394 494.604 24.0246C508.466 22.4098 535.53 19.6723 548.747 18.5524C561.727 17.5234 587.47 15.9644 600.322 15.442C613.186 14.9991 639.296 14.5838 652.631 14.6033C666.199 14.6785 694.111 15.2118 708.483 15.6437C723.189 16.0942 753.448 17.2586 769 17.9565C779.503 18.3881 790.143 18.8744 800.862 19.4132C811.702 19.8954 822.615 20.4366 833.59 21.0276C844.657 21.572 855.769 22.1634 866.907 22.8212C878.118 23.4297 889.331 24.1083 900.519 24.8448C911.769 25.5609 922.98 26.3479 934.121 27.2162C945.3 28.0677 956.395 29.0134 967.375 30.0636" stroke="url(#paint7_linear_718_24660)" stroke-width="2.5" stroke-linecap="round" stroke-dasharray="18 15"/>
<path opacity="0.21" d="M986.233 46.7929C996.516 47.9996 1006.63 49.3078 1016.53 50.7174C1031.24 52.9269 1059.53 57.9734 1073.1 60.8424C1082.04 62.8481 1090.77 64.9902 1099.3 67.2655C1116.27 72.007 1132.51 77.3294 1148.12 83.2203C1163.76 89.3978 1178.95 96.1634 1193.84 103.482C1208.91 111.079 1223.79 119.188 1238.47 127.768C1253.3 136.507 1267.82 145.605 1281.8 154.964C1295.43 164.282 1307.97 173.688 1318.98 183.031C1328.76 192.072 1336.28 200.865 1341.1 209.274C1344 217.2 1343.94 224.676 1340.94 231.687C1336.59 238.307 1330.18 244.64 1322.47 250.846C1315.62 257.099 1309.32 263.605 1304.51 270.564C1303.06 278.086 1304.27 286.33 1308.32 295.31C1315.67 304.876 1324.57 314.963 1333.79 325.305C1342.64 335.531 1348.65 345.412 1350.28 354.625C1348.32 360.91 1335.02 371.881 1323.77 376.593C1314.86 379.457 1304.81 382.166 1293.87 384.751C1282.58 387.265 1270.9 389.755 1259.03 392.28C1247.63 394.893 1236.71 397.608 1226.49 400.456C1217.33 403.527 1209.13 406.792 1201.99 410.269C1196.14 414.005 1191.35 417.948 1187.54 422.078C1184.81 426.434 1182.8 430.929 1181.33 435.515C1179.96 444.997 1178.24 454.35 1174.56 463.198C1168.49 471.542 1158.12 478.884 1143.15 485.114C1124.3 490.477 1101.45 494.804 1075.63 498.23C1048.24 501.193 1020.11 503.642 992.434 505.735C966.209 507.912 941.982 509.979 920.181 511.951C901.087 514.189 884.419 516.284 869.872 518.126C857.336 520.085 846.023 521.596 835.348 522.548C825.343 523.403 815.068 523.572 804.218 523.042C792.952 522.364 780.595 521.028 767.104 519.111C752.672 517.205 736.974 514.901 720.131 512.309C702.22 509.999 683.199 507.624 663.196 505.276C642.201 503.448 620.326 501.785 597.779 500.331C586.172 499.825 574.443 499.366 562.584 498.961C550.538 498.686 538.427 498.445 526.243 498.23C513.937 498.126 501.59 498.022 489.251 497.912C476.855 497.862 464.467 497.774 452.177 497.625C439.863 497.496 427.816 497.269 416.053 496.946C404.33 496.576 392.932 496.064 381.867 495.403C370.892 494.656 360.274 493.726 350.038 492.608C339.933 491.373 330.201 489.926 320.852 488.26C302.621 484.502 285.934 479.825 270.705 474.267C256.033 468.086 242.665 461.064 230.453 453.284C218.587 445.015 207.674 436.13 197.607 426.744C187.65 417.101 178.382 407.141 169.778 396.979C161.23 386.821 153.35 376.629 146.235 366.519C139.308 356.622 133.256 346.91 128.222 337.459C123.495 328.333 119.851 319.497 117.352 310.964C115.057 302.743 113.805 294.764 113.49 286.997C113.028 279.409 113.223 271.921 113.99 264.477C114.177 257.059 114.71 249.591 115.64 242.051C115.885 234.462 116.632 226.765 118.049 219.004C119.207 211.223 121.429 203.416 124.915 195.631C127.907 189.833 136.093 178.376 141.337 172.727C147.239 167.147 161.302 156.13 169.407 150.69C174.977 147.081 180.803 143.523 186.87 140.014C192.897 136.504 199.116 133.034 205.471 129.598C211.722 126.15 218.078 122.731 224.521 119.353C230.835 115.95 237.206 112.581 243.656 109.245C256.091 102.511 268.86 95.9559 282.02 89.6313C294.931 83.3124 308.536 77.3171 322.94 71.7063C337.655 66.23 353.424 61.2217 370.174 56.7226C387.461 52.4192 405.664 48.6279 424.623 45.3642C443.788 42.2541 463.38 39.6133 483.133 37.4284C502.636 35.297 521.97 33.5632 541.016 32.2109C559.483 30.822 577.566 29.7792 595.272 29.0921C612.416 28.3079 629.329 27.8606 646.123 27.7571C662.63 27.5317 679.243 27.6315 696.044 28.0567C712.896 28.3323 730.153 28.9053 747.824 29.7693C765.796 30.4461 784.262 31.3823 803.167 32.5586C822.479 33.529 842.22 34.7299 862.272 36.161C877.525 37.1617 908.406 39.422 923.952 40.6973C934.354 41.5445 944.771 42.4745 955.137 43.4904C965.545 44.4905 975.902 45.5923 986.209 46.796" stroke="url(#paint8_linear_718_24660)" stroke-width="2.5" stroke-linecap="round" stroke-dasharray="25 8"/>
<path opacity="0.96" d="M1007.02 64.9152C1026.36 67.6343 1045.09 70.791 1063.16 74.3804C1081.08 78.1159 1098.33 82.3576 1114.9 87.1274C1131.33 92.1104 1147.13 97.6581 1162.36 103.759C1177.48 110.106 1192.12 117.002 1206.27 124.403C1220.34 132.019 1233.9 140.084 1246.85 148.519C1259.54 157.044 1271.37 165.824 1282.13 174.725C1292.1 183.521 1300.53 192.279 1307.07 200.873C1312.26 209.138 1315.14 217.091 1315.52 224.656C1314.46 231.82 1311.03 238.594 1305.5 245.028C1299.5 251.246 1292.39 257.349 1284.9 263.496C1278.91 269.874 1273.97 276.643 1270.76 283.936C1270.59 291.845 1272.7 300.435 1276.9 309.667C1283.43 319.365 1290.67 329.401 1297.45 339.502C1303.3 349.348 1306.15 358.689 1304.79 367.252C1299.51 374.884 1288.99 381.508 1273.36 387.155C1254.69 392.092 1232.99 396.541 1209.84 400.87C1188.24 405.548 1168.87 410.725 1152.73 416.602C1140.93 423.492 1132.54 431.113 1126.8 439.266C1123.48 447.97 1120.37 456.616 1116.16 464.85C1110.5 472.714 1101.57 479.641 1088.95 485.482C1073.1 490.486 1053.6 494.364 1031.15 497.219C1006.74 499.472 980.97 501.016 954.874 502.021C929.276 502.944 904.841 503.615 882.153 504.122C861.458 504.86 842.913 505.484 826.44 505.961C811.972 506.663 799.046 507.111 787.324 507.211C776.626 507.408 766.342 507.156 756.068 506.403C745.814 505.68 734.988 504.469 723.377 502.787C711.126 501.213 697.789 499.289 683.366 497.097C667.954 495.179 651.394 493.135 633.717 491.057C615.043 489.398 595.334 487.806 574.771 486.296C553.333 485.253 531.22 484.284 508.634 483.354C485.5 482.751 462.182 482.047 438.922 481.135C415.593 480.255 393.203 478.966 371.898 477.17C350.986 475.093 331.374 472.334 313.134 468.846C295.498 464.878 279.296 460.096 264.468 454.525C250.283 448.436 237.379 441.578 225.71 434.041C214.523 426.079 204.4 417.539 195.305 408.543C186.556 399.314 178.721 389.776 171.795 380.061C165.186 370.329 159.478 360.566 154.742 350.88C150.34 341.361 146.95 332.019 144.592 322.925C142.577 314.091 141.558 305.529 141.559 297.237C141.647 289.195 142.532 281.363 144.141 273.731C145.426 266.206 147.155 258.775 149.255 251.39C150.664 243.992 152.328 236.563 154.232 229.099C155.511 221.564 157.23 213.999 159.566 206.412C161.707 198.83 164.891 191.29 169.274 183.855C174.062 176.514 180.389 169.331 188.347 162.328C196.905 155.455 207.033 148.748 218.674 142.201C230.518 135.701 243.196 129.428 256.444 123.36C269.303 117.203 282.405 111.192 295.643 105.329C308.279 99.3509 321.072 93.5493 334.077 87.9703C346.764 82.367 359.978 77.084 373.79 72.1867C387.808 67.4034 402.717 63.0902 418.476 59.2874C434.75 55.6865 451.903 52.6191 469.791 50.0849C488.029 47.7225 506.75 45.8515 525.765 44.4446C544.711 43.1125 563.64 42.1726 582.394 41.6048C600.752 40.9948 618.791 40.6988 636.465 40.7062C653.667 40.5958 670.558 40.7519 687.185 41.1853C703.518 41.4513 719.767 41.9705 736.022 42.7548C752.243 43.3499 768.656 44.1958 785.32 45.2812C802.163 46.1606 819.386 47.2766 836.974 48.6255C854.822 49.7705 873.075 51.1495 891.649 52.7763C910.487 54.2248 929.577 55.9544 948.811 57.9814C968.19 59.91 987.629 62.2073 1007.01 64.9116" stroke="url(#paint9_linear_718_24660)" stroke-width="2.5" stroke-linecap="round" stroke-dasharray="17 1"/>
<path opacity="0.67" d="M1028.15 84.4379C1046.35 87.4421 1064.03 90.8669 1081.14 94.7223C1098.1 98.7022 1114.44 103.162 1130.16 108.114C1145.68 113.255 1160.54 118.905 1174.75 125.054C1188.73 131.396 1202.02 138.218 1214.57 145.443C1226.79 152.828 1238.17 160.556 1248.54 168.533C1258.34 176.53 1266.91 184.655 1274.01 192.804C1280.18 200.795 1284.59 208.669 1287.02 216.313C1288.28 223.665 1287.46 230.719 1284.59 237.443C1280.81 243.894 1275.39 250.09 1268.67 256.09C1262.16 262.084 1255.32 268.13 1248.71 274.373C1243.89 281.004 1240.33 288.095 1238.41 295.745C1239.07 304.002 1241.43 312.844 1245.18 322.187C1250.4 331.861 1255.59 341.68 1259.77 351.379C1262.67 360.697 1262.57 369.394 1258.6 377.232C1251.22 384.147 1239.36 390.056 1223.22 395.008C1204.68 399.319 1183.63 403.145 1161.37 406.825C1140.41 410.838 1121.26 415.279 1104.81 420.338C1091.99 426.364 1082.14 433.069 1074.72 440.296C1069.67 448.125 1065.25 455.973 1060.39 463.516C1054.82 470.822 1046.97 477.302 1036.34 482.775C1023.14 487.485 1006.84 491.058 987.834 493.541C966.775 495.355 944.035 496.305 920.436 496.557C896.588 496.573 873.174 496.189 850.759 495.522C829.582 494.992 810.062 494.327 792.275 493.545C776.14 493.028 761.603 492.384 748.439 491.555C736.428 490.954 725.201 490.105 714.443 488.953C704.025 487.984 693.482 486.691 682.574 485.088C671.323 483.677 659.287 481.998 646.373 480.097C632.705 478.476 617.944 476.721 602.175 474.87C585.466 473.397 567.729 471.892 549.064 470.373C529.59 469.232 509.337 468.064 488.505 466.83C467.168 465.856 445.522 464.706 423.772 463.298C401.971 461.919 380.915 460.137 360.812 457.88C341.054 455.405 322.44 452.316 305.069 448.579C288.332 444.453 272.914 439.622 258.819 434.095C245.443 428.143 233.365 421.522 222.571 414.307C212.407 406.745 203.45 398.671 195.658 390.202C188.429 381.54 182.284 372.607 177.252 363.514C172.724 354.418 169.245 345.29 166.864 336.229C164.893 327.31 163.965 318.53 164.08 309.965C164.454 301.605 165.727 293.457 167.843 285.541C169.885 277.784 172.57 270.197 175.735 262.762C178.43 255.375 181.43 248.051 184.615 240.758C187.1 233.418 189.746 226.061 192.566 218.689C194.822 211.254 197.482 203.824 200.741 196.448C203.891 189.086 208.009 181.843 213.3 174.764C219.025 167.826 226.173 161.108 234.889 154.642C244.163 148.332 254.92 142.259 267.06 136.405C279.395 130.603 292.473 125.066 305.975 119.751C319.133 114.346 332.436 109.099 345.748 104C358.472 98.7629 371.215 93.6935 384.004 88.8414C396.422 83.926 409.166 79.3189 422.328 75.0792C435.57 70.9204 449.526 67.224 464.185 64.0215C479.288 61.0046 495.17 58.5271 511.751 56.585C528.761 54.8246 546.315 53.5759 564.222 52.7974C582.285 52.1196 600.457 51.8388 618.609 51.9294C636.566 51.9943 654.339 52.3614 671.821 53.0031C688.985 53.5262 705.873 54.2764 722.457 55.2459C738.796 56.0395 754.951 57.0326 771 58.2292C786.98 59.2104 803.01 60.3931 819.114 61.7754C835.343 62.9424 851.777 64.3088 868.475 65.8906C885.369 67.267 902.546 68.8726 919.978 70.7251C937.63 72.4216 955.511 74.3926 973.527 76.6817C991.678 78.878 1009.91 81.4476 1028.14 84.4339" stroke="url(#paint10_linear_718_24660)" stroke-width="2.5" stroke-linecap="round" stroke-dasharray="21 11"/>
<path opacity="0.25" d="M1046.69 104.831C1063.74 108.081 1080.27 111.727 1096.21 115.77C1111.98 119.905 1127.12 124.476 1141.55 129.477C1155.72 134.615 1169.14 140.196 1181.73 146.184C1193.97 152.307 1205.3 158.802 1215.64 165.605C1225.48 172.492 1234.17 179.599 1241.6 186.853C1248.31 194.074 1253.58 201.334 1257.23 208.521C1259.99 215.569 1261.03 222.458 1260.25 229.126C1258.64 235.59 1255.34 241.823 1250.48 247.826C1245.32 253.728 1239.15 259.524 1232.3 265.296C1226.16 271.233 1220.16 277.375 1214.77 283.834C1211.14 290.756 1208.73 298.175 1207.65 306.121C1208.58 314.602 1210.64 323.544 1213.4 332.824C1216.91 342.281 1219.86 351.698 1221.44 360.829C1221.56 369.497 1218.82 377.453 1212.61 384.496C1203.54 390.665 1190.7 395.852 1174.34 400.119C1156.1 403.824 1135.83 407.056 1114.56 410.114C1094.37 413.504 1075.68 417.228 1059.18 421.488C1045.7 426.644 1034.75 432.423 1026.01 438.691C1019.48 445.595 1013.86 452.581 1008.31 459.359C1002.62 466.048 995.475 472.035 986.386 477.137C975.423 481.59 961.987 484.964 946.201 487.252C928.529 488.851 909.122 489.503 888.571 489.349C867.275 488.829 845.799 487.765 824.72 486.292C804.173 484.836 784.673 483.175 766.444 481.367C749.365 479.796 733.634 478.146 719.181 476.405C705.755 474.953 693.256 473.394 681.455 471.705C670.121 470.28 659 468.696 647.856 466.936C636.576 465.447 624.866 463.794 612.588 461.989C599.732 460.475 586.052 458.849 571.512 457.118C556.218 455.723 539.995 454.247 522.934 452.69C505.15 451.453 486.633 450.104 467.53 448.624C447.972 447.347 428.067 445.851 408.002 444.047C387.897 442.277 368.426 440.116 349.751 437.514C331.441 434.745 314.159 431.426 298.015 427.546C282.501 423.372 268.259 418.578 255.318 413.21C243.105 407.497 232.238 401.231 222.684 394.456C213.895 387.41 206.384 379.942 200.158 372.145C194.61 364.193 190.295 356.021 187.198 347.731C184.67 339.414 183.294 331.085 183.041 322.806C183.205 314.616 184.387 306.543 186.539 298.634C188.823 290.846 191.894 283.213 195.644 275.755C199.21 268.359 203.203 261.082 207.537 253.897C211.325 246.692 215.292 239.523 219.341 232.37C222.733 225.136 226.211 217.892 229.876 210.668C233.056 203.38 236.627 196.146 240.774 189.012C244.909 181.92 249.983 175.011 256.141 168.336C262.741 161.82 270.685 155.581 280.016 149.667C289.917 143.915 301.155 138.455 313.622 133.274C326.301 128.147 339.585 123.317 353.213 118.732C366.496 114.045 379.853 109.531 393.162 105.173C405.86 100.649 418.474 96.2885 431.018 92.1298C443.131 87.878 455.393 83.9026 467.874 80.2609C480.374 76.6691 493.355 73.4981 506.865 70.8065C520.737 68.2678 535.281 66.2514 550.422 64.7614C566.026 63.4545 582.168 62.6568 598.709 62.3354C615.577 62.1384 632.665 62.3462 649.849 62.9402C667.088 63.5414 684.263 64.4359 701.266 65.6094C718.169 66.6816 734.851 67.9643 751.294 69.4433C767.611 70.7511 783.73 72.2224 799.688 73.8602C815.599 75.2871 831.46 76.8692 847.303 78.6151C863.223 80.1432 879.231 81.8494 895.353 83.7324C911.639 85.4234 928.088 87.3239 944.683 89.4555C961.459 91.4448 978.366 93.6964 995.357 96.2587C1012.46 98.7385 1029.59 101.583 1046.68 104.826" stroke="url(#paint11_linear_718_24660)" stroke-width="2.5" stroke-linecap="round" stroke-dasharray="22 16"/>
<path opacity="0.16" d="M1059.39 125.092C1075.23 128.543 1090.46 132.332 1105 136.441C1119.39 140.63 1133.02 145.171 1145.81 150.047C1158.29 155.034 1169.89 160.357 1180.48 165.97C1190.64 171.681 1199.72 177.644 1207.62 183.806C1214.95 190.006 1220.96 196.329 1225.59 202.7C1229.54 209.037 1231.98 215.336 1232.86 221.547C1233.06 227.659 1231.71 233.633 1228.88 239.436C1225.56 245.158 1221.02 250.757 1215.44 256.258C1209.96 261.821 1203.96 267.426 1197.77 273.153C1192.5 279.18 1187.61 285.512 1183.43 292.217C1180.79 299.413 1179.1 307.07 1178.41 315.175C1179.11 323.711 1180.36 332.563 1181.75 341.567C1183.35 350.605 1184.02 359.45 1183.13 367.87C1180.74 375.761 1175.74 382.89 1167.75 389.103C1157.36 394.498 1143.88 398.974 1127.58 402.58C1109.83 405.701 1090.45 408.373 1070.25 410.854C1050.97 413.634 1032.89 416.69 1016.61 420.174C1002.8 424.489 991.124 429.348 981.403 434.651C973.691 440.613 966.999 446.695 960.795 452.66C954.817 458.673 948.074 464.119 940.084 468.827C930.857 473.033 919.786 476.262 906.877 478.478C892.342 480.042 876.208 480.637 858.854 480.371C840.516 479.66 821.627 478.306 802.644 476.424C783.628 474.437 765.1 472.146 747.345 469.639C730.183 467.286 713.985 464.836 698.821 462.323C684.34 460.097 670.732 457.828 657.871 455.531C645.392 453.54 633.324 451.5 621.46 449.399C609.558 447.612 597.501 445.754 585.185 443.818C572.421 442.19 559.145 440.491 545.265 438.711C530.768 437.228 515.577 435.661 499.742 433.998C483.293 432.587 466.244 431.048 448.725 429.332C430.819 427.785 412.608 425.994 394.31 423.894C375.953 421.82 358.2 419.389 341.211 416.56C324.542 413.615 308.864 410.199 294.279 406.309C280.273 402.193 267.508 397.579 256.049 392.479C245.307 387.134 235.915 381.328 227.899 375.124C220.619 368.71 214.701 361.96 210.137 354.956C206.249 347.824 203.655 340.519 202.331 333.119C201.549 325.687 201.937 318.229 203.418 310.811C205.237 303.423 208.004 296.112 211.609 288.905C215.284 281.731 219.605 274.654 224.432 267.681C228.999 260.687 233.882 253.743 238.956 246.854C243.527 239.879 248.162 232.908 252.876 225.944C256.982 218.879 261.203 211.814 265.6 204.8C269.628 197.726 274.083 190.75 279.093 183.924C284.169 177.176 290.12 170.648 297.074 164.412C304.484 158.348 313.1 152.626 322.961 147.258C333.359 142.08 344.932 137.224 357.577 132.683C370.44 128.205 383.775 124.046 397.368 120.152C410.66 116.156 423.96 112.332 437.115 108.674C449.711 104.836 462.159 101.155 474.414 97.6517C486.22 94.0159 498.014 90.6381 509.879 87.5461C521.656 84.4619 533.726 81.7575 546.153 79.4914C558.833 77.3386 572.031 75.6696 585.713 74.5007C599.837 73.4997 614.483 72.9925 629.518 72.9631C644.95 73.0677 660.698 73.5968 676.637 74.5088C692.802 75.4593 709.031 76.731 725.227 78.2816C741.524 79.7634 757.713 81.4708 773.736 83.3654C789.795 85.1224 805.692 87.031 821.427 89.0812C837.215 90.9528 852.901 92.949 868.511 95.0788C884.21 97.0139 899.9 99.0958 915.584 101.334C931.422 103.391 947.31 105.634 963.202 108.083C979.245 110.396 995.311 112.951 1011.34 115.785C1027.45 118.551 1043.5 121.642 1059.36 125.083" stroke="url(#paint12_linear_718_24660)" stroke-width="2.5" stroke-linecap="round" stroke-dasharray="17 16"/>
<path opacity="0.82" d="M1063.87 144.041C1078.42 147.619 1092.2 151.45 1105.21 155.52C1118.03 159.646 1129.98 164.026 1140.96 168.646C1151.65 173.338 1161.29 178.261 1169.82 183.365C1177.92 188.532 1184.82 193.855 1190.45 199.279C1195.56 204.723 1199.32 210.218 1201.72 215.709C1203.56 221.184 1204.01 226.615 1203.08 231.967C1201.71 237.288 1199.08 242.538 1195.31 247.712C1191.4 252.917 1186.65 258.124 1181.27 263.356C1176.25 268.782 1171.04 274.375 1165.87 280.19C1161.65 286.375 1157.84 292.904 1154.63 299.816C1152.62 307.167 1151.24 314.915 1150.43 322.996C1150.44 331.373 1150.56 339.905 1150.39 348.429C1150.02 356.854 1148.52 364.961 1145.42 372.547C1140.9 379.575 1134.07 385.827 1124.7 391.193C1113.41 395.818 1099.64 399.583 1083.61 402.56C1066.54 405.128 1048.16 407.273 1029.16 409.217C1010.85 411.437 993.575 413.86 977.743 416.624C963.897 420.132 951.82 424.105 941.457 428.481C932.833 433.498 925.3 438.673 918.451 443.801C912.095 449.087 905.475 453.956 898.226 458.232C890.233 462.166 880.974 465.264 870.421 467.456C858.577 469.089 845.388 469.806 831.083 469.656C815.736 469.042 799.677 467.712 783.218 465.797C766.34 463.663 749.518 461.126 733.011 458.295C716.634 455.512 700.809 452.574 685.641 449.54C670.815 446.725 656.65 443.884 643.083 441.043C629.748 438.488 616.833 435.944 604.225 433.418C591.557 431.194 578.952 428.975 566.283 426.742C553.272 424.803 539.994 422.852 526.382 420.853C512.275 419.12 497.746 417.334 482.79 415.447C467.35 413.79 451.509 412.001 435.392 410.047C418.937 408.223 402.331 406.172 385.761 403.84C369.129 401.533 353.143 398.919 337.942 395.991C323.016 392.96 309.064 389.558 296.199 385.78C283.86 381.836 272.762 377.494 262.929 372.784C253.761 367.883 245.938 362.632 239.498 357.079C233.738 351.369 229.339 345.395 226.28 339.23C223.851 332.958 222.701 326.54 222.769 320.052C223.318 313.509 224.986 306.927 227.647 300.357C230.561 293.765 234.316 287.186 238.813 280.661C243.282 274.097 248.261 267.558 253.675 261.056C258.767 254.471 264.113 247.884 269.613 241.306C274.622 234.601 279.719 227.88 284.88 221.164C289.564 214.335 294.39 207.531 299.435 200.79C304.25 194.021 309.479 187.39 315.279 180.945C321.197 174.596 327.958 168.516 335.614 162.766C343.712 157.204 352.887 152.012 363.151 147.203C373.896 142.586 385.653 138.325 398.357 134.402C411.217 130.55 424.463 127.021 437.889 123.768C451.056 120.416 464.169 117.251 477.086 114.249C489.535 111.06 501.737 108.013 513.681 105.125C525.196 102.084 536.569 99.2554 547.866 96.6746C559.008 94.0548 570.27 91.7664 581.742 89.8541C593.345 88.0113 605.328 86.6085 617.639 85.6565C630.34 84.8423 643.461 84.5032 656.961 84.6143C670.863 84.8581 685.118 85.5222 699.61 86.5823C714.436 87.7101 729.445 89.1639 744.52 90.9092C759.837 92.6476 775.165 94.6075 790.429 96.7795C805.864 98.8493 821.22 101.086 836.468 103.46C851.849 105.696 867.135 108.054 882.312 110.529C897.646 112.847 912.898 115.291 928.067 117.861C943.407 120.29 958.653 122.87 973.806 125.612C989.119 128.257 1004.3 131.099 1019.32 134.165C1034.41 137.18 1049.3 140.463 1063.86 144.036" stroke="url(#paint13_linear_718_24660)" stroke-width="2.5" stroke-linecap="round" stroke-dasharray="10 21"/>
<path opacity="0.29" d="M1059.41 160.694C1072.53 164.319 1084.83 168.103 1096.23 172.03C1107.47 176.009 1117.73 180.141 1126.96 184.408C1135.9 188.741 1143.76 193.199 1150.44 197.76C1156.76 202.365 1161.88 207.044 1165.74 211.764C1169.18 216.513 1171.37 221.283 1172.3 226.03C1172.86 230.806 1172.21 235.558 1170.44 240.284C1168.47 245.057 1165.51 249.84 1161.75 254.637C1158.05 259.575 1153.81 264.606 1149.19 269.773C1145.05 275.214 1140.85 280.891 1136.76 286.836C1133.48 293.157 1130.5 299.82 1127.89 306.806C1126.11 314.157 1124.63 321.79 1123.31 329.622C1122.37 337.616 1121.17 345.611 1119.38 353.461C1117.15 361.113 1113.72 368.353 1108.76 375.006C1102.51 381.121 1094.33 386.471 1084.03 390.982C1072.24 394.851 1058.47 397.944 1042.99 400.321C1026.71 402.373 1009.45 404.032 991.692 405.483C974.511 407.189 958.157 409.029 942.975 411.138C929.335 413.895 917.161 417.038 906.443 420.53C897.194 424.638 889.013 428.91 881.619 433.203C874.864 437.737 868.2 441.986 861.312 445.793C854.111 449.403 846.16 452.337 837.34 454.512C827.62 456.25 816.884 457.157 805.218 457.268C792.641 456.937 779.317 455.889 765.455 454.213C750.982 452.266 736.287 449.847 721.565 447.049C706.633 444.193 691.887 441.113 677.462 437.876C663.051 434.761 649.003 431.58 635.389 428.386C621.768 425.409 608.474 422.457 595.459 419.529C582.329 416.866 569.322 414.245 556.377 411.651C543.139 409.319 529.822 407.007 516.378 404.692C502.517 402.608 488.468 400.496 474.246 398.331C459.624 396.341 444.833 394.258 429.954 392.043C414.795 389.939 399.693 387.65 384.753 385.137C369.761 382.632 355.503 379.907 342.058 376.942C328.849 373.911 316.623 370.597 305.493 367.007C294.808 363.292 285.31 359.288 277.073 355.016C269.399 350.597 263.048 345.925 258.004 341.036C253.559 336.014 250.406 330.801 248.541 325.446C247.196 319.978 247.059 314.397 248.049 308.752C249.417 303.018 251.796 297.233 255.082 291.426C258.516 285.536 262.691 279.627 267.515 273.713C272.248 267.696 277.442 261.646 282.981 255.587C288.214 249.396 293.681 243.169 299.302 236.914C304.53 230.522 309.862 224.101 315.32 217.693C320.431 211.178 325.755 204.712 331.337 198.345C336.817 191.967 342.728 185.751 349.189 179.771C355.857 173.9 363.259 168.332 371.494 163.109C380.143 158.084 389.711 153.441 400.233 149.205C411.157 145.152 422.95 141.469 435.538 138.137C448.296 134.877 461.304 131.944 474.425 129.279C487.338 126.536 500.169 123.978 512.768 121.573C524.964 118.995 536.894 116.545 548.504 114.23C559.723 111.749 570.708 109.44 581.533 107.346C592.151 105.153 602.754 103.246 613.39 101.648C624.114 100.076 635.005 98.8801 646.138 98.0805C657.567 97.3762 669.287 97.0995 681.322 97.2409C693.741 97.504 706.465 98.1698 719.445 99.2175C732.812 100.347 746.402 101.812 760.115 103.581C774.169 105.381 788.326 107.424 802.488 109.689C816.935 111.908 831.389 114.308 845.753 116.858C860.38 119.322 874.943 121.915 889.355 124.623C904.007 127.223 918.558 129.937 932.947 132.76C947.549 135.475 961.998 138.324 976.232 141.3C990.625 144.199 1004.79 147.26 1018.66 150.493C1032.64 153.683 1046.23 157.078 1059.38 160.694" stroke="url(#paint14_linear_718_24660)" stroke-width="2.5" stroke-linecap="round" stroke-dasharray="21 2"/>
<path opacity="0.44" d="M1047 174.621C1058.69 178.203 1069.47 181.866 1079.34 185.6C1089.07 189.375 1097.81 193.228 1105.51 197.147C1112.98 201.108 1119.35 205.138 1124.62 209.207C1129.61 213.32 1133.44 217.475 1136.17 221.643C1138.58 225.855 1139.9 230.084 1140.16 234.325C1140.18 238.626 1139.24 242.962 1137.43 247.314C1135.53 251.795 1132.93 256.35 1129.74 261.004C1126.7 265.856 1123.32 270.876 1119.69 276.09C1116.48 281.598 1113.22 287.362 1110.04 293.387C1107.41 299.747 1104.9 306.385 1102.53 313.261C1100.62 320.393 1098.68 327.685 1096.6 335.038C1094.57 342.433 1092.02 349.708 1088.74 356.726C1084.89 363.474 1079.86 369.752 1073.46 375.441C1065.96 380.612 1056.85 385.063 1046.06 388.751C1034.14 391.9 1020.69 394.352 1005.92 396.182C990.608 397.754 974.541 398.972 958.101 399.989C942.108 401.22 926.769 402.542 912.405 404.064C899.196 406.141 887.19 408.528 876.391 411.204C866.796 414.447 858.168 417.864 850.357 421.338C843.201 425.116 836.358 428.708 829.615 432.001C819.254 436.591 795.429 442.419 781.434 443.378C771.131 443.411 760.187 442.778 748.729 441.527C736.615 439.983 724.138 437.939 711.432 435.472C698.323 432.878 685.135 429.977 672.016 426.851C658.645 423.761 645.421 420.54 632.369 417.245C619.156 414.085 606.111 410.916 593.269 407.756C580.188 404.783 567.239 401.851 554.383 398.953C541.234 396.261 528.089 393.604 514.989 390.97C501.525 388.519 488.035 386.067 474.551 383.595C460.736 381.267 446.937 378.879 433.247 376.409C419.319 374.026 405.602 371.51 392.192 368.838C378.754 366.176 366.093 363.371 354.287 360.417C342.661 357.405 332.028 354.207 322.487 350.83C313.278 347.353 305.228 343.684 298.361 339.832C291.958 335.867 286.787 331.721 282.843 327.425C279.376 323.011 277.107 318.456 276.015 313.795C275.321 309.022 275.715 304.144 277.135 299.2C278.826 294.139 281.404 289.012 284.801 283.83C288.289 278.535 292.408 273.173 297.112 267.768C301.7 262.217 306.723 256.607 312.066 250.948C317.164 245.138 322.52 239.272 328.05 233.368C333.307 227.332 338.734 221.276 344.348 215.244C349.776 209.133 355.468 203.093 361.462 197.176C367.465 191.274 373.92 185.567 380.911 180.119C388.129 174.791 396.024 169.777 404.66 165.13C413.66 160.67 423.471 156.6 434.067 152.929C445.015 149.439 456.703 146.317 469.048 143.544C481.529 140.836 494.188 138.45 506.893 136.343C519.44 134.149 531.876 132.148 544.095 130.301C555.948 128.278 567.538 126.387 578.807 124.609C589.712 122.646 600.349 120.834 610.767 119.185C620.948 117.412 631.007 115.871 641.007 114.571C656.021 112.745 686.806 110.803 702.808 110.787C713.872 110.985 725.177 111.556 736.702 112.481C748.601 113.495 760.714 114.837 772.97 116.482C785.598 118.172 798.379 120.127 811.204 122.315C824.387 124.507 837.598 126.893 850.794 129.45C864.294 131.963 877.746 134.621 891.103 137.402C904.717 140.127 918.229 142.959 931.558 145.906C945.11 148.781 958.469 151.764 971.557 154.863C984.825 157.904 997.794 161.069 1010.37 164.362C1023.05 167.632 1035.28 171.048 1046.98 174.615" stroke="url(#paint15_linear_718_24660)" stroke-width="2.5" stroke-linecap="round" stroke-dasharray="8 2"/>
<path opacity="0.47" d="M1029.01 186.093C1039.26 189.554 1048.64 193.063 1057.14 196.588C1065.51 200.147 1072.95 203.739 1079.43 207.363C1088.36 212.868 1100.98 224.088 1104.66 229.792C1107.11 235.633 1107.46 247.685 1105.68 253.968C1104.3 258.342 1102.34 262.844 1099.94 267.492C1097.72 272.355 1095.18 277.412 1092.45 282.676C1090.01 288.199 1087.45 293.958 1084.83 299.938C1082.53 306.162 1080.14 312.57 1077.67 319.125C1075.36 325.817 1072.78 332.544 1069.83 339.218C1066.72 345.835 1062.95 352.233 1058.41 358.302C1053.27 364.075 1047.07 369.358 1039.65 374.061C1031.39 378.304 1021.81 381.894 1010.91 384.805C999.183 387.278 986.304 389.149 972.439 390.484C958.213 391.624 943.405 392.447 928.312 393.08C913.579 393.907 899.374 394.768 885.913 395.767C873.347 397.239 861.715 398.953 851.062 400.896C841.352 403.351 832.508 405.962 824.413 408.666C813.408 413.151 793.095 421.35 782.841 424.526C771.833 426.941 746.899 428.507 732.892 427.636C722.836 426.614 712.384 425.097 701.644 423.135C690.439 421.017 679.012 418.548 667.475 415.802C655.57 413.013 643.609 410.037 631.679 406.92C619.42 403.854 607.213 400.72 595.087 397.545C582.669 394.489 570.29 391.431 558.022 388.385C545.415 385.481 532.89 382.597 520.432 379.738C507.653 377.006 494.946 374.29 482.368 371.571C469.517 368.958 456.792 366.316 444.303 363.634C431.636 361.011 419.259 358.305 407.292 355.507C395.286 352.712 384.107 349.845 373.769 346.904C363.577 343.92 354.357 340.824 346.131 337.626C338.181 334.349 331.323 330.951 325.553 327.442C317.972 321.97 308.876 310.317 307.259 304.165C306.821 299.912 307.359 295.571 308.778 291.153C310.403 286.605 312.819 281.979 315.922 277.277C319.095 272.433 322.864 267.513 327.14 262.518C331.336 257.37 335.948 252.146 340.893 246.861C345.703 241.43 350.781 235.939 356.102 230.423C361.271 224.8 366.689 219.167 372.358 213.586C377.956 207.954 383.889 202.419 390.177 197.029C396.536 191.69 403.366 186.557 410.709 181.692C418.281 176.962 426.486 172.553 435.323 168.499C444.485 164.633 454.335 161.142 464.831 158.037C475.635 155.099 487.049 152.505 498.995 150.26C511.057 148.078 523.241 146.205 535.428 144.587C547.508 142.911 559.442 141.41 571.172 140.064C582.642 138.564 593.823 137.174 604.705 135.888C620.434 133.75 650.254 129.904 664.553 128.32C678.667 126.842 707.027 125.215 721.491 125.16C731.417 125.277 741.497 125.72 751.72 126.483C762.255 127.306 772.977 128.436 783.825 129.865C795.028 131.341 806.358 133.08 817.759 135.063C829.502 137.062 841.312 139.279 853.142 141.676C865.256 144.07 877.357 146.627 889.392 149.317C901.68 151.987 913.88 154.78 925.893 157.688C938.142 160.554 950.167 163.529 961.933 166.605C973.866 169.651 985.46 172.803 996.654 176.053C1007.93 179.287 1018.74 182.63 1029 186.087" stroke="url(#paint16_linear_718_24660)" stroke-width="2.5" stroke-linecap="round" stroke-dasharray="16 6"/>
<path opacity="0.7" d="M1008.29 196.02C1017.18 199.322 1025.28 202.649 1032.58 205.99C1042.98 211.051 1059.38 221.331 1065.38 226.57C1070.3 231.922 1075.94 242.98 1076.85 248.733C1077.17 252.714 1076.87 256.796 1076.01 261C1075.17 265.35 1073.89 269.858 1072.22 274.523C1070.64 279.376 1068.78 284.411 1066.66 289.63C1064.68 295.041 1062.49 300.625 1060.1 306.352C1057.81 312.225 1055.28 318.198 1052.47 324.212C1049.62 330.25 1046.35 336.236 1042.58 342.069C1038.55 347.773 1033.82 353.205 1028.32 358.277C1022.3 363.04 1015.34 367.337 1007.39 371.094C998.772 374.459 989.134 377.246 978.473 379.455C967.237 381.311 955.145 382.665 942.329 383.559C929.274 384.32 915.797 384.807 902.083 385.109C888.626 385.582 875.613 386.052 863.151 386.612C851.346 387.562 840.268 388.684 829.976 389.987C815.963 392.675 792.019 399.038 781.525 402.338C771.584 405.651 751.687 410.697 741.229 412.135C729.999 412.847 705.313 411.594 691.873 409.719C682.394 408.175 672.655 406.273 662.735 404.062C652.43 401.771 641.969 399.24 631.418 396.521C620.507 393.792 609.537 390.933 598.541 387.98C587.243 385.078 575.922 382.122 564.648 379.13C553.072 376.214 541.535 373.296 530.083 370.365C518.358 367.53 506.719 364.681 495.274 361.833C483.581 359.056 472.069 356.26 460.858 353.437C449.505 350.659 438.478 347.832 427.894 344.935C417.289 342.051 407.455 339.142 398.431 336.204C389.518 333.229 381.49 330.207 374.379 327.13C364.515 322.383 349.994 312.419 345.374 307.186C342.092 301.723 340.38 290.216 341.742 284.174C343.052 279.998 345.065 275.729 347.696 271.379C350.388 266.895 353.637 262.32 357.345 257.671C361.048 252.887 365.159 248.026 369.652 243.109C374.056 238.072 378.805 232.998 383.86 227.913C388.862 222.757 394.179 217.624 399.836 212.555C405.485 207.481 411.512 202.522 417.933 197.725C424.494 193.003 431.505 188.505 439.009 184.271C446.737 180.175 455.011 176.389 463.848 172.95C472.958 169.679 482.642 166.762 492.884 164.202C503.354 161.796 514.319 159.722 525.725 157.958C537.253 156.257 548.828 154.848 560.388 153.68C571.87 152.464 583.23 151.423 594.399 150.516C605.363 149.482 616.074 148.555 626.526 147.72C641.683 146.264 670.413 143.629 684.121 142.533C697.535 141.453 724.051 140.235 737.309 140.193C750.845 140.427 778.695 142.298 793.034 143.937C802.902 145.154 812.869 146.616 822.901 148.317C833.231 150.043 843.597 151.988 853.99 154.121C864.661 156.268 875.306 158.583 885.898 161.064C896.72 163.528 907.462 166.14 918.048 168.867C928.825 171.58 939.416 174.416 949.734 177.347C960.203 180.265 970.352 183.289 980.127 186.4C989.983 189.508 999.38 192.715 1008.28 196.014" stroke="url(#paint17_linear_718_24660)" stroke-width="2.5" stroke-linecap="round" stroke-dasharray="14 18"/>
<path opacity="0.35" d="M987.164 205.626C998.255 210.325 1016.98 219.903 1024.54 224.79C1033.85 231.43 1040.33 238.289 1044.2 245.367C1047.7 252.759 1048.86 260.556 1048.06 268.798C1047.23 277.551 1044.81 286.89 1041.11 296.731C1037.51 307.049 1032.58 317.679 1026.21 328.253C1019.26 338.654 1010.11 348.335 998.384 356.726C984.905 364.012 968.239 369.49 948.483 372.968C937.982 374.282 926.842 375.19 915.164 375.719C903.354 376.156 891.225 376.353 878.907 376.388C866.758 376.556 854.953 376.705 843.59 376.904C832.667 377.412 822.298 378.035 812.519 378.796C794.503 381.405 778.577 384.366 764.394 387.348C751.089 390.976 738.242 393.808 725.433 395.504C711.867 396.87 697.519 396.711 682.395 395.09C665.887 392.96 648.516 389.568 630.624 385.213C611.367 380.696 591.725 375.546 572.071 370.022C551.257 364.643 530.586 359.043 510.513 353.327C500.179 350.543 490.034 347.718 480.184 344.867C470.199 342.038 460.564 339.165 451.333 336.242C442.072 333.326 433.527 330.406 425.705 327.472C417.962 324.52 410.997 321.535 404.836 318.534C392.985 312.371 384.509 305.996 379.297 299.418C374.881 292.5 373.588 285.28 375.081 277.783C377.076 269.84 381.44 261.558 387.764 253.028C394.204 244.072 402.29 234.922 411.828 225.792C421.446 216.513 432.605 207.521 445.3 199.159C458.56 191.138 473.694 184.072 490.72 178.236C499.572 175.557 508.898 173.198 518.683 171.161C528.646 169.264 539.024 167.66 549.776 166.347C560.607 165.091 571.478 164.095 582.312 163.321C593.085 162.518 603.774 161.874 614.27 161.37C634.831 160.001 654.55 158.998 673.235 158.3C691.278 157.033 708.616 156.201 725.327 155.9C742.004 155.329 758.558 155.529 775.052 156.559C792.129 157.607 809.455 159.571 826.87 162.398C845.14 165.304 863.54 168.999 881.691 173.361C900.633 177.744 919.171 182.699 936.84 188.132C945.842 190.836 954.583 193.647 962.983 196.567C971.439 199.483 979.52 202.498 987.155 205.62" stroke="url(#paint18_linear_718_24660)" stroke-width="2.5" stroke-linecap="round" stroke-dasharray="25 13"/>
<path opacity="0.89" d="M966.818 216.029C979.752 221.902 990.417 228.014 998.824 234.308C1006.92 240.709 1012.72 247.41 1016.41 254.391C1019.79 261.623 1021.18 269.267 1020.83 277.295C1020.31 285.667 1018.2 294.462 1014.62 303.516C1010.83 312.763 1005.45 322.029 998.406 330.96C990.619 339.534 980.705 347.258 968.498 353.737C954.972 359.258 938.918 363.246 920.534 365.584C901.179 367.166 880.165 367.579 858.207 367.16C836.776 367.185 816.528 367.229 797.931 367.572C780.769 369.064 765.208 370.85 751.095 372.722C737.792 375.301 725.129 377.408 712.824 378.78C700.198 380.104 687.239 380.327 673.9 379.396C659.596 378.135 644.653 375.77 629.309 372.461C612.826 368.958 595.96 364.738 579.028 359.976C561.146 355.238 543.345 350.128 526.051 344.746C508.143 339.467 491.054 333.927 475.324 328.157C459.497 322.406 446.175 316.591 435.48 310.715C425.222 304.706 417.763 298.515 413.053 292.166C408.914 285.549 407.43 278.666 408.336 271.56C409.709 264.119 413.214 256.409 418.591 248.545C424.233 240.408 431.592 232.201 440.476 224.129C449.651 216.048 460.433 208.346 472.744 201.3C485.633 194.627 500.244 188.865 516.485 184.215C533.411 180.106 551.91 177.097 571.716 175.198C591.798 173.507 611.834 172.641 631.419 172.369C650.627 171.758 669.174 171.488 686.853 171.488C704.054 170.97 720.586 170.787 736.456 170.978C752.214 170.833 767.692 171.257 782.855 172.304C798.383 173.258 813.915 174.947 829.324 177.365C845.336 179.785 861.304 182.935 876.966 186.73C893.199 190.534 909.022 194.931 924.09 199.855C939.473 204.757 953.844 210.155 966.81 216.022" stroke="url(#paint19_linear_718_24660)" stroke-width="2.5" stroke-linecap="round" stroke-dasharray="22 19"/>
<path opacity="0.88" d="M947.109 227.784C957.944 233.267 966.917 239.056 974.058 245.085C980.957 251.201 985.968 257.635 989.188 264.348C992.136 271.229 993.347 278.443 992.946 285.922C992.28 293.576 990.037 301.436 986.272 309.33C982.114 317.204 976.331 324.867 968.845 332.024C960.686 338.744 950.608 344.623 938.609 349.36C925.701 353.344 910.827 356.071 894.216 357.479C877.031 358.38 858.575 358.348 839.361 357.616C820.498 357.235 802.43 356.777 785.515 356.469C769.516 357.051 754.685 357.834 740.966 358.712C727.866 360.252 715.432 361.535 703.487 362.375C691.451 363.37 679.411 363.601 667.299 363.003C654.584 362.258 641.533 360.619 628.273 358.15C614.215 355.536 599.882 352.195 585.54 348.254C570.47 344.286 555.502 339.823 541.015 334.965C526.035 330.157 511.757 324.979 498.619 319.474C485.43 313.978 474.279 308.362 465.292 302.652C456.609 296.862 450.233 290.892 446.102 284.776C442.419 278.493 440.955 271.985 441.559 265.328C442.579 258.457 445.523 251.431 450.227 244.354C455.267 237.152 461.984 230.006 470.233 223.094C478.868 216.288 489.048 209.914 500.703 204.2C512.858 198.851 526.529 194.332 541.635 190.788C557.212 187.692 574.146 185.552 592.162 184.367C610.389 183.364 628.592 183.098 646.442 183.368C664.069 183.39 681.21 183.746 697.662 184.354C713.801 184.536 729.37 184.973 744.317 185.69C759.139 186.066 773.601 186.84 787.627 188.071C801.851 189.139 815.881 190.763 829.607 192.97C843.722 195.12 857.624 197.884 871.149 201.234C885.024 204.566 898.475 208.476 911.203 212.922C924.144 217.348 936.217 222.303 947.109 227.784Z" stroke="url(#paint20_linear_718_24660)" stroke-width="2.5" stroke-linecap="round" stroke-dasharray="9 21"/>
<path opacity="0.78" d="M926.818 240.653C935.738 245.713 943.103 251.085 948.911 256.703C954.556 262.373 958.582 268.327 961.079 274.491C963.323 280.736 964.025 287.201 963.251 293.765C962.172 300.37 959.601 306.992 955.562 313.463C951.131 319.792 945.15 325.768 937.659 331.176C929.618 336.178 919.956 340.399 908.752 343.65C896.954 346.356 883.687 348.066 869.11 348.764C854.214 349.145 838.319 348.781 821.783 347.841C805.468 347.173 789.631 346.356 774.553 345.578C760.026 345.447 746.271 345.414 733.333 345.441C720.802 346.039 708.817 346.5 697.342 346.696C685.881 347.145 674.58 347.105 663.424 346.495C651.933 345.893 640.367 344.622 628.817 342.678C616.736 340.672 604.587 338.026 592.549 334.792C580.025 331.526 567.666 327.733 555.78 323.482C543.541 319.242 531.931 314.568 521.28 309.491C510.579 304.42 501.561 299.162 494.287 293.785C487.239 288.361 482.052 282.756 478.688 277.035C475.68 271.22 474.522 265.255 475.126 259.213C476.092 253.084 478.757 246.893 483.002 240.764C487.604 234.631 493.75 228.646 501.335 222.976C509.272 217.469 518.661 212.418 529.374 207.983C540.474 203.879 552.915 200.496 566.534 197.954C580.502 195.763 595.59 194.367 611.635 193.798C627.804 193.37 643.985 193.582 659.925 194.279C675.735 194.806 691.226 195.663 706.218 196.755C721.006 197.528 735.364 198.527 749.165 199.738C762.876 200.652 776.21 201.852 789.077 203.388C802.035 204.723 814.687 206.47 826.929 208.658C839.371 210.75 851.501 213.331 863.153 216.407C875.007 219.433 886.385 222.978 897.045 227.028C907.836 231.053 917.842 235.593 926.818 240.653Z" stroke="url(#paint21_linear_718_24660)" stroke-width="2.5" stroke-linecap="round" stroke-dasharray="20 3"/>
<path opacity="0.7" d="M904.452 253.605C911.605 258.176 917.391 263.005 921.863 268.011C926.206 273.046 929.166 278.266 930.786 283.6C932.223 288.939 932.282 294.367 931.041 299.755C929.538 305.092 926.68 310.314 922.526 315.267C918.055 320.041 912.252 324.418 905.155 328.243C897.713 331.744 888.956 334.586 878.988 336.654C868.703 338.357 857.274 339.301 844.871 339.488C832.301 339.493 818.942 338.921 804.999 337.874C791.189 337.012 777.626 335.974 764.532 334.884C751.739 334.241 739.401 333.605 727.615 332.983C716.06 332.785 704.93 332.503 694.206 332.057C683.525 331.88 673.074 331.396 662.885 330.549C652.516 329.789 642.258 328.557 632.18 326.847C621.805 325.14 611.529 322.918 601.509 320.194C591.188 317.467 581.15 314.249 571.597 310.584C561.821 306.921 552.647 302.821 544.302 298.31C535.921 293.803 528.926 289.088 523.366 284.234C517.927 279.366 514.009 274.35 511.582 269.247C509.398 264.118 508.744 258.905 509.549 253.691C510.651 248.474 513.197 243.287 517.139 238.246C521.353 233.271 526.939 228.513 533.778 224.094C540.894 219.852 549.277 216.045 558.805 212.791C568.603 209.809 579.507 207.429 591.419 205.75C603.552 204.328 616.625 203.563 630.486 203.479C644.448 203.509 658.462 204.082 672.309 205.073C686.109 205.973 699.698 207.178 712.94 208.63C726.088 209.847 738.91 211.287 751.278 212.903C763.615 214.294 775.585 215.903 787.129 217.752C798.693 219.422 809.91 221.39 820.664 223.676C831.526 225.854 841.982 228.403 851.909 231.338C861.958 234.207 871.468 237.499 880.27 241.211C889.148 244.9 897.275 249.029 904.452 253.605Z" stroke="url(#paint22_linear_718_24660)" stroke-width="2.5" stroke-linecap="round" stroke-dasharray="9 9"/>
<path opacity="0.89" d="M878.903 265.125C889.853 273.131 896.073 281.711 897.806 290.313C899.007 298.851 895.518 307.115 887.737 314.296C879.179 320.881 866.242 325.8 849.577 328.405C832.297 330.174 811.675 329.857 788.766 327.662C766.167 325.987 744.059 323.707 723.385 321.287C703.163 320.038 683.848 318.301 665.899 315.81C647.586 313.789 629.928 310.434 613.766 305.634C596.876 300.884 581.499 294.586 569.032 286.867C556.455 279.149 548.624 270.753 545.506 262.215C543.019 253.716 545.503 245.204 552.54 237.352C560.351 229.862 572.632 223.44 588.75 218.804C605.484 214.939 625.82 213.063 648.908 213.47C672.191 214.224 695.69 216.586 718.204 219.954C740.57 222.795 762.092 226.432 781.927 230.713C801.858 234.474 820.455 239.177 836.821 244.87C853.428 250.367 867.862 257.12 878.903 265.125Z" stroke="url(#paint23_linear_718_24660)" stroke-width="2.5" stroke-linecap="round" stroke-dasharray="2 2"/>
<path opacity="0.2" d="M849.995 273.703C857.977 280.352 862.024 287.099 862.478 293.526C862.619 299.857 859.041 305.645 852.126 310.354C844.821 314.684 834.213 317.658 820.844 318.946C807.218 319.825 791.067 319.198 773.062 317.146C755.189 315.416 737.364 312.998 720.397 310.267C703.59 308.246 687.365 305.77 672.33 302.814C657.121 300.238 642.757 296.822 629.975 292.497C616.857 288.244 605.315 282.932 596.438 276.636C587.468 270.338 582.337 263.66 580.9 257.057C579.785 250.528 582.531 244.216 588.782 238.633C595.484 233.353 605.641 229.044 618.736 226.179C632.175 223.805 648.387 222.963 666.782 223.866C685.29 225 704.061 227.459 722.179 230.781C740.268 233.853 757.758 237.648 773.872 241.963C790.047 245.979 805.014 250.655 817.911 255.939C830.958 261.098 841.975 267.049 849.995 273.703Z" stroke="url(#paint24_linear_718_24660)" stroke-width="2.5" stroke-linecap="round" stroke-dasharray="11 8"/>
<path opacity="0.29" d="M818.554 278.303C823.889 283.424 826.252 288.312 825.938 292.698C823.945 298.883 807.163 307.023 793.225 308.343C783.199 308.685 771.352 307.982 758.08 306.227C744.836 304.656 731.479 302.425 718.623 299.815C705.783 297.556 693.308 294.881 681.797 291.867C670.182 289.087 659.375 285.787 650.041 282.014C640.523 278.306 632.481 273.994 626.625 269.174C620.715 264.355 617.723 259.485 617.45 254.851C618.612 248.176 634.294 237.839 648.092 235.043C658.12 233.785 670.149 233.636 683.798 234.739C697.486 235.991 711.407 238.236 724.908 241.178C738.388 244.035 751.482 247.508 763.502 251.382C775.542 255.126 786.597 259.332 795.976 263.848C805.414 268.311 813.182 273.184 818.554 278.303Z" stroke="url(#paint25_linear_718_24660)" stroke-width="2.5" stroke-linecap="round" stroke-dasharray="4 26"/>
<path opacity="0.67" d="M786 278.739C791.39 288.424 768.47 297.331 744.268 294.848C726.908 292.502 708.942 288.156 693.721 283.009C678.324 278.243 665.423 272.203 658.735 265.619C651.994 259.044 653.052 253.145 660.35 249.198C667.858 245.54 681.537 244.211 699.36 246.164C717.229 248.373 735.763 253.167 751.334 259.07C766.964 264.852 779.744 271.813 786 278.739Z" stroke="url(#paint26_linear_718_24660)" stroke-width="2.5" stroke-linecap="round" stroke-dasharray="24 3"/>
</g>
<defs>
<linearGradient id="paint0_linear_718_24660" x1="1643.19" y1="-77.8232" x2="1149.65" y2="1162.51" gradientUnits="userSpaceOnUse">
<stop stop-color="#FFC656"/>
<stop offset="1" stop-color="#F16063"/>
</linearGradient>
<linearGradient id="paint1_linear_718_24660" x1="1659.22" y1="-44.2551" x2="1108.45" y2="1185.08" gradientUnits="userSpaceOnUse">
<stop stop-color="#FFC656"/>
<stop offset="1" stop-color="#F16063"/>
</linearGradient>
<linearGradient id="paint2_linear_718_24660" x1="1668.67" y1="-11.1919" x2="1054.15" y2="1205.01" gradientUnits="userSpaceOnUse">
<stop stop-color="#FFC656"/>
<stop offset="1" stop-color="#F16063"/>
</linearGradient>
<linearGradient id="paint3_linear_718_24660" x1="1671.74" y1="21.1952" x2="986.055" y2="1220.41" gradientUnits="userSpaceOnUse">
<stop stop-color="#FFC656"/>
<stop offset="1" stop-color="#F16063"/>
</linearGradient>
<linearGradient id="paint4_linear_718_24660" x1="1668.65" y1="52.7226" x2="903.509" y2="1228.83" gradientUnits="userSpaceOnUse">
<stop stop-color="#FFC656"/>
<stop offset="1" stop-color="#F16063"/>
</linearGradient>
<linearGradient id="paint5_linear_718_24660" x1="1659.66" y1="83.2113" x2="806.207" y2="1226.95" gradientUnits="userSpaceOnUse">
<stop stop-color="#FFC656"/>
<stop offset="1" stop-color="#F16063"/>
</linearGradient>
<linearGradient id="paint6_linear_718_24660" x1="1645.09" y1="112.494" x2="694.626" y2="1210.54" gradientUnits="userSpaceOnUse">
<stop stop-color="#FFC656"/>
<stop offset="1" stop-color="#F16063"/>
</linearGradient>
<linearGradient id="paint7_linear_718_24660" x1="1625.13" y1="140.506" x2="572.521" y2="1174.04" gradientUnits="userSpaceOnUse">
<stop stop-color="#FFC656"/>
<stop offset="1" stop-color="#F16063"/>
</linearGradient>
<linearGradient id="paint8_linear_718_24660" x1="1597.48" y1="166.371" x2="433.431" y2="1108.8" gradientUnits="userSpaceOnUse">
<stop stop-color="#FFC656"/>
<stop offset="1" stop-color="#F16063"/>
</linearGradient>
<linearGradient id="paint9_linear_718_24660" x1="1569.02" y1="191.305" x2="302.089" y2="1015.33" gradientUnits="userSpaceOnUse">
<stop stop-color="#FFC656"/>
<stop offset="1" stop-color="#F16063"/>
</linearGradient>
<linearGradient id="paint10_linear_718_24660" x1="1535.44" y1="214.334" x2="179.936" y2="884.85" gradientUnits="userSpaceOnUse">
<stop stop-color="#FFC656"/>
<stop offset="1" stop-color="#F16063"/>
</linearGradient>
<linearGradient id="paint11_linear_718_24660" x1="1498.09" y1="235.515" x2="84.1749" y2="719.882" gradientUnits="userSpaceOnUse">
<stop stop-color="#FFC656"/>
<stop offset="1" stop-color="#F16063"/>
</linearGradient>
<linearGradient id="paint12_linear_718_24660" x1="1457.41" y1="254.755" x2="30.9864" y2="530.108" gradientUnits="userSpaceOnUse">
<stop stop-color="#FFC656"/>
<stop offset="1" stop-color="#F16063"/>
</linearGradient>
<linearGradient id="paint13_linear_718_24660" x1="1413.8" y1="271.971" x2="31.4056" y2="334.147" gradientUnits="userSpaceOnUse">
<stop stop-color="#FFC656"/>
<stop offset="1" stop-color="#F16063"/>
</linearGradient>
<linearGradient id="paint14_linear_718_24660" x1="1367.59" y1="287.035" x2="85.6553" y2="155.161" gradientUnits="userSpaceOnUse">
<stop stop-color="#FFC656"/>
<stop offset="1" stop-color="#F16063"/>
</linearGradient>
<linearGradient id="paint15_linear_718_24660" x1="1319.18" y1="299.845" x2="181.748" y2="13.5286" gradientUnits="userSpaceOnUse">
<stop stop-color="#FFC656"/>
<stop offset="1" stop-color="#F16063"/>
</linearGradient>
<linearGradient id="paint16_linear_718_24660" x1="1269.17" y1="310.399" x2="299.868" y2="-79.8068" gradientUnits="userSpaceOnUse">
<stop stop-color="#FFC656"/>
<stop offset="1" stop-color="#F16063"/>
</linearGradient>
<linearGradient id="paint17_linear_718_24660" x1="1217.41" y1="318.977" x2="417.6" y2="-122.654" gradientUnits="userSpaceOnUse">
<stop stop-color="#FFC656"/>
<stop offset="1" stop-color="#F16063"/>
</linearGradient>
<linearGradient id="paint18_linear_718_24660" x1="1166.48" y1="324.732" x2="526.793" y2="-131.668" gradientUnits="userSpaceOnUse">
<stop stop-color="#FFC656"/>
<stop offset="1" stop-color="#F16063"/>
</linearGradient>
<linearGradient id="paint19_linear_718_24660" x1="1114.94" y1="328.649" x2="613.78" y2="-110.562" gradientUnits="userSpaceOnUse">
<stop stop-color="#FFC656"/>
<stop offset="1" stop-color="#F16063"/>
</linearGradient>
<linearGradient id="paint20_linear_718_24660" x1="1063.83" y1="330.378" x2="677.994" y2="-72.5718" gradientUnits="userSpaceOnUse">
<stop stop-color="#FFC656"/>
<stop offset="1" stop-color="#F16063"/>
</linearGradient>
<linearGradient id="paint21_linear_718_24660" x1="1013.6" y1="329.914" x2="721.967" y2="-25.9182" gradientUnits="userSpaceOnUse">
<stop stop-color="#FFC656"/>
<stop offset="1" stop-color="#F16063"/>
</linearGradient>
<linearGradient id="paint22_linear_718_24660" x1="964.664" y1="327.282" x2="748.785" y2="23.8535" gradientUnits="userSpaceOnUse">
<stop stop-color="#FFC656"/>
<stop offset="1" stop-color="#F16063"/>
</linearGradient>
<linearGradient id="paint23_linear_718_24660" x1="917.366" y1="322.488" x2="762.485" y2="73.6498" gradientUnits="userSpaceOnUse">
<stop stop-color="#FFC656"/>
<stop offset="1" stop-color="#F16063"/>
</linearGradient>
<linearGradient id="paint24_linear_718_24660" x1="872.442" y1="315.672" x2="765.166" y2="120.491" gradientUnits="userSpaceOnUse">
<stop stop-color="#FFC656"/>
<stop offset="1" stop-color="#F16063"/>
</linearGradient>
<linearGradient id="paint25_linear_718_24660" x1="830.133" y1="306.875" x2="760.435" y2="163.868" gradientUnits="userSpaceOnUse">
<stop stop-color="#FFC656"/>
<stop offset="1" stop-color="#F16063"/>
</linearGradient>
<linearGradient id="paint26_linear_718_24660" x1="788.192" y1="294.696" x2="749.647" y2="204.468" gradientUnits="userSpaceOnUse">
<stop stop-color="#FFC656"/>
<stop offset="1" stop-color="#F16063"/>
</linearGradient>
<clipPath id="clip0_718_24660">
<rect width="1440" height="560" fill="white"/>
</clipPath>
</defs>
</svg>
